<svg width="20" height="20" viewBox="0 0 20 20" fill="none" xmlns="http://www.w3.org/2000/svg">
<g opacity="0.5">
<path d="M16.6667 7.5H9.16667C8.24619 7.5 7.5 8.24619 7.5 9.16667V16.6667C7.5 17.5871 8.24619 18.3333 9.16667 18.3333H16.6667C17.5871 18.3333 18.3333 17.5871 18.3333 16.6667V9.16667C18.3333 8.24619 17.5871 7.5 16.6667 7.5Z" stroke="#222222" stroke-linecap="round" stroke-linejoin="round"/>
<path d="M4.16406 12.5003H3.33073C2.8887 12.5003 2.46478 12.3247 2.15222 12.0122C1.83966 11.6996 1.66406 11.2757 1.66406 10.8337V3.33366C1.66406 2.89163 1.83966 2.46771 2.15222 2.15515C2.46478 1.84259 2.8887 1.66699 3.33073 1.66699H10.8307C11.2728 1.66699 11.6967 1.84259 12.0092 2.15515C12.3218 2.46771 12.4974 2.89163 12.4974 3.33366V4.16699" stroke="#222222" stroke-linecap="round" stroke-linejoin="round"/>
</g>
</svg>
