<svg width="60" height="60" viewBox="0 0 60 60" fill="none" xmlns="http://www.w3.org/2000/svg">
<rect width="60" height="60" rx="15" fill="white"/>
<path d="M17.5676 19.7483C17.5676 19.7688 17.5573 19.779 17.5368 19.779C17.5368 19.779 17.5368 19.7688 17.5368 19.7483C17.5368 19.7483 17.5471 19.7483 17.5676 19.7483ZM17.5368 19.7483C17.5163 19.7483 17.5061 19.738 17.5061 19.7175C17.5061 19.738 17.5163 19.7483 17.5368 19.7483ZM18.2442 30.8508L18.2134 30.8201L18.2442 30.8508ZM16.9525 40.0466V40.0158V40.0466ZM17.0755 40.0466V40.0773V40.0466ZM16.9217 39.9851C16.9422 39.9646 16.9525 39.9748 16.9525 40.0158C16.9525 39.9953 16.9422 39.9851 16.9217 39.9851ZM17.4138 40.4464C17.4138 40.4259 17.4036 40.4157 17.3831 40.4157L17.4138 40.4464ZM17.7521 40.877C17.7316 40.877 17.7214 40.8667 17.7214 40.8462L17.7521 40.877ZM17.8751 40.9077H17.8444H17.8751ZM33.4064 14.8582C33.4474 14.9197 33.4577 14.9915 33.4372 15.0735C33.4372 15.135 33.4474 15.2068 33.468 15.2888C33.3859 15.3298 33.3347 15.4015 33.3142 15.5041C33.3142 15.5861 33.3039 15.6578 33.2834 15.7193C33.2424 15.9244 33.1604 16.1089 33.0374 16.2729C32.9349 16.437 32.8323 16.5907 32.7298 16.7343C32.7503 16.7958 32.7401 16.847 32.6991 16.888C32.6786 16.929 32.6683 16.9906 32.6683 17.0726C32.6888 17.0316 32.6786 17.0316 32.6376 17.0726C32.6171 17.0931 32.5863 17.0828 32.5453 17.0418L32.5145 17.1956H32.4223C32.3813 17.2571 32.3403 17.3391 32.2993 17.4416C32.2583 17.5236 32.2172 17.5954 32.1762 17.6569H32.207C32.166 17.6979 32.1352 17.6979 32.1147 17.6569C32.1147 17.6979 32.084 17.7492 32.0225 17.8107C31.9815 17.8722 31.9815 17.9235 32.0225 17.9645L31.961 18.026C32.002 18.0055 32.0532 18.0055 32.1147 18.026C32.0737 18.149 32.0532 18.2823 32.0532 18.4258C32.0737 18.4053 32.1045 18.395 32.1455 18.395C32.1045 18.395 32.0737 18.4053 32.0532 18.4258C31.9507 18.5078 31.8174 18.6513 31.6534 18.8564C31.4894 19.0409 31.3766 19.1844 31.3151 19.2869C31.1511 19.451 31.0075 19.615 30.8845 19.779C30.7615 19.9225 30.6795 20.1071 30.6385 20.3326C30.6385 20.3736 30.6282 20.4146 30.6077 20.4556C30.6077 20.4761 30.6282 20.5069 30.6692 20.5479C30.6897 20.5479 30.6692 20.5684 30.6077 20.6094C30.5667 20.6299 30.5155 20.6607 30.454 20.7017C30.3924 20.7427 30.3617 20.8247 30.3617 20.9477V20.9785C30.3207 21.0605 30.3002 21.1117 30.3002 21.1322H30.3309C30.3104 21.1732 30.3002 21.2245 30.3002 21.286C30.3002 21.3475 30.2797 21.409 30.2387 21.4705L30.2694 21.4398C30.2694 21.4398 30.2592 21.45 30.2387 21.4705C30.1567 21.6551 30.0644 21.8396 29.9619 22.0241C29.8799 22.2087 29.7876 22.3829 29.6851 22.547C29.6851 22.629 29.6646 22.7007 29.6236 22.7622C29.5826 22.8033 29.5518 22.8648 29.5313 22.9468C29.5518 22.9058 29.5416 22.9058 29.5005 22.9468C29.4595 22.9878 29.4185 22.998 29.3775 22.9775L29.316 23.1621C29.316 23.1621 29.2955 23.1723 29.2545 23.1928C29.2135 23.2748 29.1622 23.3774 29.1007 23.5004C29.0392 23.6029 28.9777 23.7054 28.9162 23.8079L28.9777 23.7772C28.9572 23.8182 28.9265 23.8489 28.8854 23.8694C28.8649 23.8899 28.8444 23.8797 28.8239 23.8387C28.8239 23.8797 28.8034 23.9309 28.7624 23.9925C28.7214 24.054 28.7214 24.1257 28.7624 24.2077L28.7009 24.2385H28.9162C28.8547 24.3205 28.8137 24.4128 28.7932 24.5153C28.7727 24.5973 28.7419 24.6896 28.7009 24.7921C28.7624 24.7716 28.8239 24.7408 28.8854 24.6998C28.8034 24.7408 28.7522 24.7613 28.7317 24.7613C28.6907 24.8228 28.6292 24.9151 28.5471 25.0381C28.4651 25.1406 28.3831 25.2534 28.3011 25.3764C28.2191 25.4995 28.1371 25.6122 28.0551 25.7147C27.973 25.8173 27.9013 25.8993 27.8398 25.9608C27.6552 26.1863 27.4912 26.4221 27.3477 26.6681C27.2042 26.8937 27.1119 27.1295 27.0709 27.3755C27.0709 27.4165 27.0606 27.4575 27.0401 27.4985C27.0401 27.5395 27.0401 27.5805 27.0401 27.6215C27.0812 27.6626 27.0401 27.7241 26.9171 27.8061C26.7941 27.8881 26.6813 27.9086 26.5788 27.8676C26.6813 28.0931 26.6711 28.2879 26.5481 28.4519C26.425 28.5955 26.2713 28.7185 26.0867 28.821V28.8518H26.1175C26.097 28.8928 26.0765 28.9338 26.056 28.9748C26.0355 28.9953 26.0047 29.026 25.9637 29.067C25.9842 29.1491 25.9842 29.2311 25.9637 29.3131C25.9432 29.3951 25.933 29.4771 25.933 29.5591C25.8509 29.6616 25.7997 29.7642 25.7792 29.8667C25.7792 29.9692 25.7689 30.0717 25.7484 30.1742V30.1435C25.6254 30.4305 25.5024 30.6971 25.3794 30.9431C25.2564 31.1891 25.1128 31.4352 24.9488 31.6812C24.9078 31.7632 24.8668 31.835 24.8258 31.8965C24.8053 31.958 24.7848 32.04 24.7643 32.1425C24.7848 32.081 24.7745 32.081 24.7335 32.1425C24.713 32.1836 24.6823 32.1836 24.6412 32.1425L24.549 32.3578C24.508 32.3168 24.4875 32.3168 24.4875 32.3578C24.4055 32.4603 24.3337 32.5731 24.2722 32.6961C24.2312 32.7987 24.1697 32.9012 24.0877 33.0037H24.1184C24.0979 33.0447 24.0672 33.0754 24.0261 33.096C24.0056 33.1165 23.9954 33.1062 23.9954 33.0652C23.9749 33.1267 23.9441 33.1985 23.9031 33.2805C23.8621 33.342 23.8621 33.4035 23.9031 33.465L23.8109 33.5265C23.8929 33.506 23.9544 33.4958 23.9954 33.4958C23.9544 33.5983 23.9236 33.7008 23.9031 33.8033C23.8826 33.9058 23.8519 34.0084 23.8109 34.1109C23.8724 34.0699 23.9134 34.0289 23.9339 33.9878L23.8109 34.1109C23.6878 34.2134 23.5238 34.4184 23.3188 34.726C23.1137 35.013 22.9702 35.2283 22.8882 35.3718C22.6627 35.6179 22.4576 35.8639 22.2731 36.1099C22.1091 36.3355 21.9963 36.5815 21.9348 36.8481C21.9348 36.9711 21.9246 37.0634 21.904 37.1249C21.9246 37.1454 21.8835 37.2069 21.781 37.3094C21.6785 37.4119 21.5555 37.4427 21.412 37.4017C21.5555 37.6272 21.5452 37.8425 21.3812 38.0475C21.2377 38.232 21.0634 38.3858 20.8584 38.5088C20.8994 38.4268 20.9506 38.3448 21.0122 38.2628C21.0737 38.1808 21.1249 38.0885 21.1659 37.986L21.1352 38.0783C21.0942 37.9758 21.0532 37.9758 21.0122 38.0783C21.0532 38.0988 21.0532 38.1603 21.0122 38.2628C20.9711 38.3038 20.9301 38.3243 20.8891 38.3243C20.8686 38.3038 20.8584 38.3243 20.8584 38.3858C20.8379 38.3653 20.8071 38.3551 20.7661 38.3551C20.7251 38.3756 20.7046 38.3858 20.7046 38.3858C20.7251 38.3653 20.7149 38.3756 20.6738 38.4166C20.6533 38.4371 20.6636 38.4678 20.7046 38.5088C20.7046 38.5498 20.6841 38.5704 20.6431 38.5704C20.6431 38.5498 20.6226 38.5396 20.5816 38.5396C20.5816 38.5806 20.5508 38.6114 20.4893 38.6319C20.4483 38.6934 20.4073 38.7446 20.3663 38.7856C20.3663 38.7856 20.3458 38.7959 20.3048 38.8164C20.3868 39.0009 20.3253 39.1444 20.1203 39.247C20.0998 39.3495 20.0485 39.4315 19.9665 39.493C19.905 39.5545 19.823 39.616 19.7204 39.6775C19.6794 39.78 19.6589 39.8313 19.6589 39.8313C19.6589 39.8108 19.6692 39.7698 19.6897 39.7083H19.6589V39.8928C19.5769 39.8928 19.5564 39.9133 19.5974 39.9543C19.5974 39.9543 19.6179 39.9543 19.6589 39.9543L19.5974 39.9851C19.5974 40.0056 19.5769 39.9953 19.5359 39.9543C19.4949 39.9543 19.4744 39.9851 19.4744 40.0466C19.4744 40.0876 19.4539 40.1286 19.4129 40.1696C19.3719 40.1286 19.3616 40.0979 19.3821 40.0773C19.4026 40.0568 19.3924 40.0466 19.3514 40.0466C19.3719 40.0056 19.3821 40.0056 19.3821 40.0466C19.4026 40.0671 19.4231 40.0568 19.4436 40.0158C19.4231 39.9953 19.3719 39.9851 19.2899 39.9851C19.2899 40.0056 19.2796 40.0261 19.2591 40.0466C19.2386 40.0671 19.2284 40.0979 19.2284 40.1389C19.2284 40.1389 19.2386 40.1491 19.2591 40.1696C19.2591 40.1901 19.2386 40.2004 19.1976 40.2004C19.1771 40.2004 19.1771 40.2209 19.1976 40.2619C19.1976 40.2619 19.1668 40.2619 19.1053 40.2619V40.3541C19.0438 40.4157 19.0028 40.4259 18.9823 40.3849C18.9413 40.4874 18.9413 40.5284 18.9823 40.5079C18.9413 40.5489 18.9003 40.5592 18.8593 40.5387C18.8388 40.4977 18.8183 40.4567 18.7978 40.4157C18.7773 40.4567 18.767 40.5182 18.767 40.6002C18.7875 40.6617 18.7875 40.6924 18.767 40.6924C18.767 40.713 18.7568 40.6924 18.7363 40.6309C18.7363 40.5694 18.7363 40.5182 18.7363 40.4772L18.7055 40.5079C18.7055 40.4874 18.7158 40.5182 18.7363 40.6002C18.7773 40.6822 18.7875 40.7232 18.767 40.7232C18.7465 40.7232 18.7363 40.7335 18.7363 40.754C18.7363 40.754 18.7465 40.7642 18.767 40.7847L18.7363 40.8155C18.7363 40.795 18.726 40.7745 18.7055 40.754C18.6645 40.754 18.644 40.7847 18.644 40.8462H18.6748C18.6748 40.8872 18.6543 40.9077 18.6133 40.9077C18.5723 40.8872 18.562 40.877 18.5825 40.877C18.603 40.8565 18.5928 40.8462 18.5517 40.8462C18.5517 40.8052 18.562 40.8052 18.5825 40.8462C18.603 40.8667 18.6235 40.8565 18.644 40.8155C18.603 40.795 18.5415 40.7847 18.4595 40.7847C18.398 40.8257 18.3672 40.8667 18.3672 40.9077C18.3672 40.9282 18.3672 40.9385 18.3672 40.9385C18.3877 40.918 18.398 40.918 18.398 40.9385C18.398 40.959 18.3877 40.9692 18.3672 40.9692C18.3467 40.9692 18.3467 40.9795 18.3672 41H18.3365V41.0308V41.0615C18.2955 41.082 18.275 41.1128 18.275 41.1538H18.3057C18.2647 41.1948 18.2442 41.2255 18.2442 41.246C18.2647 41.2665 18.2544 41.2973 18.2134 41.3383C18.1724 41.3793 18.1417 41.3691 18.1212 41.3076C18.1212 41.2665 18.1007 41.2563 18.0597 41.2768C18.0597 41.2358 18.0392 41.1743 17.9982 41.0923C17.9777 41.0923 17.9674 41.082 17.9674 41.0615C17.9674 41.0615 17.9469 41.0718 17.9059 41.0923H17.9366C17.9366 41.1128 17.9264 41.123 17.9059 41.123C17.9059 41.123 17.9059 41.1128 17.9059 41.0923L17.8444 41.0615H17.8136V41.0308C17.8136 41.0103 17.8034 41 17.7829 41C17.7829 40.9795 17.7829 40.959 17.7829 40.9385H17.7521C17.7316 40.9385 17.7214 40.9282 17.7214 40.9077C17.7419 40.9077 17.7521 40.8975 17.7521 40.877H17.8136C17.8136 40.877 17.8136 40.8462 17.8136 40.7847C17.8136 40.7642 17.8034 40.754 17.7829 40.754C17.7829 40.754 17.7829 40.7437 17.7829 40.7232C17.7419 40.7437 17.6804 40.7232 17.5983 40.6617C17.5368 40.6002 17.4856 40.5899 17.4446 40.6309L17.4753 40.6617C17.4753 40.6617 17.4651 40.6514 17.4446 40.6309H17.4138H17.3831V40.6002C17.2805 40.6412 17.1985 40.6104 17.137 40.5079C17.096 40.3849 17.0448 40.3644 16.9832 40.4464L17.014 40.4772C17.014 40.4772 16.9935 40.4772 16.9525 40.4772C16.9525 40.4567 16.9422 40.4567 16.9217 40.4772C16.9217 40.4977 16.9217 40.4772 16.9217 40.4157C16.9422 40.3541 16.9525 40.2721 16.9525 40.1696V40.2004C16.9525 40.2004 16.9422 40.1901 16.9217 40.1696C16.9012 40.2106 16.891 40.2209 16.891 40.2004C16.891 40.1799 16.9012 40.1491 16.9217 40.1081C16.9217 40.0876 16.9217 40.0773 16.9217 40.0773C16.9422 40.0773 16.9525 40.0671 16.9525 40.0466V40.0773V40.0466C16.973 40.0261 16.9935 40.0158 17.014 40.0158C17.014 39.9748 17.0242 39.9338 17.0448 39.8928C17.0653 39.8518 17.0755 39.8211 17.0755 39.8006C17.0755 39.7595 17.0653 39.7185 17.0448 39.6775C17.0448 39.616 17.0448 39.5648 17.0448 39.5238C16.9832 39.4622 16.932 39.3597 16.891 39.2162C16.8705 39.0522 16.809 38.8984 16.7064 38.7549C16.7475 38.5704 16.7475 38.4063 16.7064 38.2628C16.6654 38.1193 16.6449 37.9655 16.6449 37.8015C16.5834 37.4939 16.5527 37.1761 16.5527 36.8481C16.5322 36.8481 16.5219 36.8378 16.5219 36.8173V36.7866H16.4912C16.3681 36.2125 16.3169 35.6589 16.3374 35.1258H16.3066H16.2759C16.2759 35.1053 16.2349 35.0745 16.1529 35.0335H16.1221C16.1221 35.054 16.1118 35.0643 16.0913 35.0643C16.0913 35.0438 16.0913 35.0233 16.0913 35.0028V34.972C16.0913 34.931 16.1016 34.9208 16.1221 34.9413C16.0811 34.8592 16.0708 34.8182 16.0913 34.8182C16.0913 34.7362 16.1016 34.685 16.1221 34.6645C16.1221 34.726 16.1324 34.767 16.1529 34.7875C16.1734 34.767 16.1734 34.7567 16.1529 34.7567C16.1324 34.7362 16.1324 34.7157 16.1529 34.6952C16.1734 34.6747 16.1734 34.6645 16.1529 34.6645C16.1324 34.6645 16.1221 34.6542 16.1221 34.6337C16.1221 34.5312 16.1426 34.4594 16.1836 34.4184C16.1836 34.3774 16.1631 34.3364 16.1221 34.2954C16.1221 34.3979 16.0913 34.4902 16.0298 34.5722C16.0503 34.5517 16.0503 34.5209 16.0298 34.4799C16.0708 34.4799 16.0913 34.4697 16.0913 34.4492L16.0606 34.4184H16.0913L16.0606 34.3877C16.0606 34.4287 16.0298 34.4184 15.9683 34.3569C15.9273 34.3364 15.8658 34.2954 15.7838 34.2339C15.7018 34.1519 15.6608 34.1006 15.6608 34.0801C15.6608 34.0596 15.6505 34.0391 15.63 34.0186C15.671 34.0186 15.671 34.0084 15.63 33.9878C15.6095 33.9673 15.6198 33.9468 15.6608 33.9263C15.6608 33.8853 15.6505 33.8648 15.63 33.8648C15.6095 33.8238 15.6198 33.7931 15.6608 33.7726C15.7018 33.7521 15.7018 33.7213 15.6608 33.6803L15.7223 33.6495C15.7223 33.6085 15.712 33.5983 15.6915 33.6188C15.671 33.6188 15.6608 33.5983 15.6608 33.5573C15.7018 33.5163 15.7223 33.4753 15.7223 33.4343C15.6813 33.2907 15.671 33.1575 15.6915 33.0344C15.712 32.8909 15.7223 32.7576 15.7223 32.6346C15.6608 32.6346 15.6403 32.6551 15.6608 32.6961C15.6813 32.7371 15.671 32.7576 15.63 32.7576C15.6095 32.5321 15.5788 32.3066 15.5378 32.081C15.4967 31.8555 15.4557 31.63 15.4147 31.4044C15.3942 31.3224 15.4045 31.2506 15.4455 31.1891C15.4865 31.1071 15.507 31.0149 15.507 30.9123V30.9739C15.5275 30.9328 15.4865 30.8713 15.384 30.7893C15.302 30.6868 15.2815 30.615 15.3225 30.574C15.343 30.492 15.3635 30.451 15.384 30.451C15.4045 30.4305 15.3942 30.3895 15.3532 30.328C15.3942 30.287 15.4045 30.246 15.384 30.205C15.343 30.123 15.3225 30.0717 15.3225 30.0512C15.302 29.9692 15.2712 29.8257 15.2302 29.6206C15.1892 29.6616 15.1584 29.6719 15.1379 29.6514C15.1174 29.6104 15.1584 29.5386 15.261 29.4361C15.261 29.3951 15.2405 29.3746 15.1994 29.3746C15.1789 29.3541 15.1789 29.3233 15.1994 29.2823C15.1174 29.2413 15.0559 29.1798 15.0149 29.0978C14.9739 28.9338 14.9739 28.7492 15.0149 28.5442C15.0559 28.3187 15.0764 28.1136 15.0764 27.9291C15.0764 27.9086 15.0662 27.8881 15.0457 27.8676C15.0457 27.8471 15.0252 27.7753 14.9842 27.6523C14.9637 27.5293 14.9329 27.4063 14.8919 27.2832C14.8509 27.1397 14.8099 27.0167 14.7689 26.9142C14.7484 26.7912 14.7586 26.7194 14.7996 26.6989C14.7791 26.6989 14.7689 26.6886 14.7689 26.6681C14.7279 26.5656 14.7176 26.4734 14.7381 26.3913C14.7791 26.3093 14.7894 26.2171 14.7689 26.1146V26.1453C14.7074 25.9608 14.6561 25.7762 14.6151 25.5917C14.5946 25.4072 14.5638 25.2329 14.5228 25.0689C14.5638 24.9869 14.5843 24.9151 14.5843 24.8536C14.4818 24.4845 14.3998 24.095 14.3383 23.6849C14.2973 23.5004 14.2665 23.3158 14.246 23.1313C14.246 22.9263 14.2255 22.7315 14.1845 22.547C14.205 22.2804 14.2153 22.0139 14.2153 21.7473C14.2358 21.4603 14.2665 21.1835 14.3076 20.9169H14.2768C14.3178 20.8554 14.3281 20.8144 14.3076 20.7939C14.287 20.7734 14.2973 20.7324 14.3383 20.6709L14.3691 20.6402C14.3486 20.6196 14.3383 20.5991 14.3383 20.5786V20.5479C14.3383 20.5479 14.3281 20.5376 14.3076 20.5171C14.3076 20.4761 14.3178 20.4351 14.3383 20.3941C14.3588 20.3326 14.3588 20.2813 14.3383 20.2403V20.2711C14.3178 20.1686 14.3076 20.0763 14.3076 19.9943C14.3281 19.8918 14.3281 19.7995 14.3076 19.7175C14.3691 19.697 14.3998 19.656 14.3998 19.5945C14.3588 19.5125 14.3281 19.4202 14.3076 19.3177C14.3076 19.1947 14.3076 19.0819 14.3076 18.9794C14.287 18.8769 14.287 18.7846 14.3076 18.7026C14.3281 18.6001 14.3178 18.4975 14.2768 18.395C14.3178 18.2515 14.3486 18.1182 14.3691 17.9952C14.3896 17.8517 14.4306 17.7184 14.4921 17.5954H14.4613C14.5228 17.5544 14.5433 17.5339 14.5228 17.5339C14.5023 17.5339 14.5331 17.5134 14.6151 17.4724C14.6561 17.4314 14.6664 17.4314 14.6459 17.4724C14.6459 17.5134 14.6664 17.5339 14.7074 17.5339C14.7484 17.4929 14.7689 17.4621 14.7689 17.4416H14.7381C14.7791 17.4006 14.7894 17.3801 14.7689 17.3801C14.7689 17.3596 14.7894 17.3289 14.8304 17.2879C14.8714 17.2468 14.9021 17.2571 14.9227 17.3186C14.9432 17.3596 14.9739 17.3699 15.0149 17.3494C15.0354 17.3904 15.0559 17.4314 15.0764 17.4724C15.0969 17.4929 15.1072 17.5441 15.1072 17.6262C15.2097 17.6467 15.2712 17.6877 15.2917 17.7492C15.3327 17.7902 15.3737 17.8312 15.4147 17.8722C15.3942 17.9542 15.4045 18.026 15.4455 18.0875C15.507 18.1285 15.548 18.1695 15.5685 18.2105H15.5993C15.7018 18.477 15.7735 18.7846 15.8145 19.1332C15.8351 19.1537 15.8453 19.1947 15.8453 19.2562C15.8658 19.2562 15.8658 19.2254 15.8453 19.1639C15.8453 19.1844 15.8761 19.1639 15.9376 19.1024C15.8966 19.1024 15.8761 19.0716 15.8761 19.0101C15.8761 18.9486 15.8966 18.9179 15.9376 18.9179C15.9171 18.8564 15.8966 18.8051 15.8761 18.7641C15.8761 18.7026 15.8556 18.7026 15.8145 18.7641C15.8145 18.6411 15.8556 18.6206 15.9376 18.7026V18.6718C15.9171 18.5898 15.9068 18.5181 15.9068 18.4565C15.9273 18.395 15.9273 18.3233 15.9068 18.2413C15.9273 18.1387 15.9478 18.0465 15.9683 17.9645C16.0093 17.8619 16.0708 17.7594 16.1529 17.6569H16.1221C16.1631 17.6159 16.1734 17.5954 16.1529 17.5954C16.1529 17.5954 16.1836 17.5749 16.2451 17.5339C16.2861 17.5134 16.3066 17.5236 16.3066 17.5646C16.3066 17.5851 16.3271 17.5954 16.3681 17.5954C16.3681 17.5954 16.3784 17.6057 16.3989 17.6262C16.4399 17.5851 16.4604 17.5339 16.4604 17.4724C16.4809 17.4109 16.5014 17.3596 16.5219 17.3186C16.5629 17.2776 16.5732 17.2571 16.5527 17.2571C16.5322 17.2571 16.5629 17.2366 16.6449 17.1956C16.6654 17.1546 16.6757 17.1546 16.6757 17.1956C16.6962 17.2366 16.7269 17.2571 16.768 17.2571C16.768 17.2981 16.7782 17.3391 16.7987 17.3801C16.8397 17.4211 16.8705 17.4621 16.891 17.5031C16.9525 17.5236 16.9935 17.5544 17.014 17.5954C17.055 17.6364 17.096 17.6774 17.137 17.7184C17.096 17.7799 17.096 17.8414 17.137 17.903C17.1985 17.944 17.2498 17.985 17.2908 18.026H17.3215C17.3831 18.1695 17.4241 18.313 17.4446 18.4565C17.4651 18.5796 17.4753 18.7026 17.4753 18.8256C17.5163 18.8666 17.5368 18.9076 17.5368 18.9486C17.5368 18.9896 17.5573 19.0306 17.5983 19.0716C17.5778 19.0511 17.5676 19.0614 17.5676 19.1024C17.5676 19.1229 17.5471 19.1229 17.5061 19.1024V19.2254C17.4856 19.2049 17.4753 19.2049 17.4753 19.2254C17.4753 19.2664 17.4753 19.3279 17.4753 19.4099C17.4958 19.492 17.4958 19.5637 17.4753 19.6252H17.5061V19.656C17.5061 19.6765 17.5061 19.6867 17.5061 19.6867V19.7175C17.5061 19.738 17.4958 19.7483 17.4753 19.7483C17.4958 19.7893 17.5266 19.8303 17.5676 19.8713C17.5676 19.8508 17.5778 19.8405 17.5983 19.8405C17.5983 19.8405 17.5881 19.8508 17.5676 19.8713H17.5983L17.5368 19.9328C17.5778 19.8918 17.6188 19.8713 17.6599 19.8713C17.7009 19.9943 17.7521 20.0866 17.8136 20.1481C17.8136 20.1071 17.8239 20.0763 17.8444 20.0558C17.8444 20.0968 17.8341 20.1276 17.8136 20.1481C17.7521 20.2506 17.7214 20.4044 17.7214 20.6094C17.7214 20.6299 17.7316 20.6504 17.7521 20.6709V20.7017C17.7111 20.7017 17.7009 20.7119 17.7214 20.7324C17.7624 20.7529 17.7624 20.7734 17.7214 20.7939C17.7214 20.8144 17.7419 20.8247 17.7829 20.8247C17.8034 20.8657 17.7829 20.9067 17.7214 20.9477C17.6804 20.9682 17.6804 20.999 17.7214 21.04H17.6599C17.6599 21.081 17.6701 21.1015 17.6906 21.1015C17.7111 21.081 17.7214 21.0912 17.7214 21.1322C17.6804 21.1732 17.6599 21.2142 17.6599 21.2553C17.6599 21.4193 17.6496 21.532 17.6291 21.5936C17.6291 21.6346 17.6496 21.6756 17.6906 21.7166C17.7316 21.7371 17.7521 21.7678 17.7521 21.8088C17.7726 21.8293 17.7931 21.8499 17.8136 21.8704C17.8341 21.8704 17.8341 21.8909 17.8136 21.9319C17.7931 21.9524 17.7521 21.9831 17.6906 22.0241V22.1779C17.8546 22.2599 17.8546 22.3727 17.6906 22.5162C17.7111 22.6187 17.7214 22.7315 17.7214 22.8545C17.7419 22.957 17.7521 23.0698 17.7521 23.1928C17.7521 23.2748 17.7214 23.3466 17.6599 23.4081C17.6188 23.4491 17.5983 23.5106 17.5983 23.5926C17.5778 23.6131 17.6086 23.6747 17.6906 23.7772C17.7726 23.8592 17.7931 23.9207 17.7521 23.9617C17.7316 24.0232 17.7111 24.0642 17.6906 24.0847C17.6906 24.0847 17.6906 24.1257 17.6906 24.2077C17.6496 24.2487 17.6393 24.2898 17.6599 24.3308C17.6804 24.3513 17.6906 24.3718 17.6906 24.3923C17.6906 24.4128 17.7009 24.4435 17.7214 24.4845C17.7419 24.5665 17.7521 24.7101 17.7521 24.9151C17.7931 24.8536 17.8136 24.8433 17.8136 24.8843C17.8341 24.9254 17.7931 24.9971 17.6906 25.0996C17.6906 25.1406 17.7009 25.1611 17.7214 25.1611C17.7419 25.1611 17.7419 25.1816 17.7214 25.2227L17.9059 25.4072C17.9264 25.5712 17.9059 25.7557 17.8444 25.9608C17.8034 26.1453 17.7726 26.3401 17.7521 26.5451V26.6066C17.7316 26.6271 17.7316 26.6989 17.7521 26.8219C17.7931 26.9244 17.8239 27.0372 17.8444 27.1602C17.8854 27.2832 17.9161 27.4063 17.9366 27.5293C17.9572 27.6318 17.9469 27.6831 17.9059 27.6831C17.9264 27.6831 17.9469 27.6933 17.9674 27.7138C18.0084 27.8163 18.0084 27.8983 17.9674 27.9599C17.9264 28.0214 17.9161 28.1034 17.9366 28.2059C17.9777 28.2674 17.9982 28.3597 17.9982 28.4827C18.0187 28.4212 18.0289 28.3494 18.0289 28.2674V28.4519V28.575C18.0289 28.7185 18.0289 28.8415 18.0289 28.944C18.0289 29.0465 18.0392 29.1491 18.0597 29.2516C17.9982 29.3541 17.9777 29.4258 17.9982 29.4669C17.9982 29.5284 18.0084 29.5694 18.0289 29.5899L18.1212 29.6821L18.1827 29.7436L18.1519 29.7744H18.1827C18.1417 29.7744 18.1314 29.7847 18.1519 29.8052C18.1724 29.8257 18.1622 29.8359 18.1212 29.8359C18.1212 29.8359 18.1314 29.8462 18.1519 29.8667C18.1724 29.8872 18.1622 29.9077 18.1212 29.9282C18.1007 29.9282 18.1109 29.9487 18.1519 29.9897H18.0904C18.0904 30.0102 18.1007 30.0204 18.1212 30.0204C18.1417 30.0204 18.1519 30.0409 18.1519 30.082C18.1314 30.082 18.1212 30.0922 18.1212 30.1127C18.1007 30.1742 18.0904 30.2562 18.0904 30.3588C18.1109 30.4408 18.1212 30.5228 18.1212 30.6048V30.7586L18.1519 30.7893H18.1827C18.1827 30.7688 18.1929 30.7688 18.2134 30.7893V30.8201H18.1827H18.2134C18.1929 30.8406 18.1724 30.8508 18.1519 30.8508C18.1724 30.8713 18.1724 30.8918 18.1519 30.9123C18.1519 30.9328 18.1622 30.9431 18.1827 30.9431C18.1827 31.0046 18.1724 31.0354 18.1519 31.0354V31.2506C18.1519 31.2301 18.1519 31.2199 18.1519 31.2199C18.1724 31.1994 18.1827 31.1789 18.1827 31.1584C18.1827 31.1584 18.2032 31.1789 18.2442 31.2199H18.1519V31.2814V31.2506V31.3122C18.1724 31.2917 18.2032 31.2917 18.2442 31.3122L18.2134 31.3429C18.2339 31.3429 18.275 31.3839 18.3365 31.4659C18.4185 31.5274 18.4595 31.5684 18.4595 31.589V31.6197H18.4902C18.4492 31.6197 18.439 31.63 18.4595 31.6505C18.48 31.671 18.4697 31.6812 18.4287 31.6812C18.4287 31.7017 18.439 31.712 18.4595 31.712C18.48 31.753 18.4697 31.7837 18.4287 31.8042C18.3877 31.8042 18.3877 31.8247 18.4287 31.8657L18.3365 31.8965C18.3365 31.917 18.3467 31.9273 18.3672 31.9273C18.4082 31.9068 18.4185 31.917 18.398 31.958L18.3057 32.0503C18.3057 32.1528 18.2852 32.2451 18.2442 32.3271C18.2237 32.4091 18.2237 32.5014 18.2442 32.6039C18.2852 32.5834 18.2955 32.5629 18.275 32.5424C18.2544 32.5219 18.2647 32.5116 18.3057 32.5116C18.2852 32.6756 18.2852 32.8397 18.3057 33.0037C18.3467 33.1677 18.357 33.342 18.3365 33.5265C18.3365 33.588 18.316 33.6495 18.275 33.7111C18.2339 33.7521 18.2032 33.7931 18.1827 33.8341C18.1827 33.8751 18.1827 33.9058 18.1827 33.9263C18.2032 33.9263 18.2134 33.9366 18.2134 33.9571C18.275 34.0186 18.3057 34.0699 18.3057 34.1109C18.3467 34.2134 18.357 34.2646 18.3365 34.2646C18.3365 34.2646 18.3467 34.2749 18.3672 34.2954C18.3672 34.3364 18.357 34.3877 18.3365 34.4492C18.3365 34.4902 18.3467 34.5312 18.3672 34.5722V34.7567C18.3877 34.7567 18.398 34.7772 18.398 34.8182C18.398 34.9618 18.4082 35.0643 18.4287 35.1258C18.4287 35.1463 18.4287 35.1565 18.4287 35.1565C18.4492 35.1565 18.4595 35.1668 18.4595 35.1873C18.48 35.2283 18.4492 35.3308 18.3672 35.4948C18.4082 35.5974 18.4287 35.6999 18.4287 35.8024C18.4492 35.8844 18.4697 35.9767 18.4902 36.0792C18.4902 36.1612 18.4902 36.2432 18.4902 36.3252C18.4902 36.3867 18.5005 36.4688 18.521 36.5713C18.562 36.4688 18.6133 36.3867 18.6748 36.3252C18.7363 36.2432 18.7875 36.1715 18.8285 36.1099C18.767 36.0689 18.726 36.0792 18.7055 36.1407C18.685 36.2022 18.6645 36.2227 18.644 36.2022C18.7465 36.0382 18.8388 35.8639 18.9208 35.6794C19.0028 35.4948 19.0951 35.3103 19.1976 35.1258C19.3001 34.9208 19.3821 34.7362 19.4436 34.5722C19.5257 34.3877 19.6179 34.2134 19.7204 34.0494C19.8025 33.9058 19.8947 33.7931 19.9972 33.7111C20.0998 33.629 20.1818 33.506 20.2433 33.342V33.4035C20.2638 33.3625 20.2945 33.2395 20.3355 33.0344C20.3971 32.8294 20.4483 32.7269 20.4893 32.7269C20.5713 32.6244 20.6226 32.5731 20.6431 32.5731C20.6636 32.5526 20.6944 32.4808 20.7354 32.3578C20.8174 32.2758 20.8686 32.2143 20.8891 32.1733C20.9301 32.1323 20.9506 32.081 20.9506 32.0195C20.9711 31.958 20.9916 31.9068 21.0122 31.8657C21.0532 31.7632 21.1044 31.6505 21.1659 31.5274C21.2479 31.4044 21.33 31.2814 21.412 31.1584C21.33 31.2199 21.2992 31.2096 21.3197 31.1276C21.3402 31.0456 21.4325 30.9533 21.5965 30.8508C21.6375 30.7893 21.6478 30.7483 21.6273 30.7278C21.6273 30.6868 21.658 30.6458 21.7195 30.6048C21.7195 30.5023 21.74 30.369 21.781 30.205C21.8425 30.0615 21.9246 29.9282 22.0271 29.8052C22.1296 29.6616 22.2321 29.5181 22.3346 29.3746C22.5807 29.067 22.8164 28.78 23.042 28.5134C23.042 28.4724 23.042 28.4519 23.042 28.4519C23.0625 28.4314 23.0727 28.4109 23.0727 28.3904C23.1137 28.3699 23.1753 28.2674 23.2573 28.0829C23.3598 27.8778 23.4623 27.6626 23.5648 27.437C23.6878 27.191 23.8006 26.9757 23.9031 26.7912C24.0056 26.6066 24.0774 26.5144 24.1184 26.5144C24.1184 26.4529 24.1184 26.4221 24.1184 26.4221C24.2209 26.2581 24.3132 26.1248 24.3952 26.0223C24.4772 25.9198 24.5695 25.7865 24.672 25.6225V25.6532C24.836 25.3662 25.0103 25.0791 25.1948 24.7921C25.3999 24.505 25.5844 24.2385 25.7484 23.9925C25.7894 23.9514 25.8407 23.9104 25.9022 23.8694C25.9637 23.8284 26.015 23.7567 26.056 23.6541C26.138 23.5106 26.22 23.3774 26.302 23.2543C26.384 23.1108 26.4866 22.957 26.6096 22.793C26.7121 22.629 26.8146 22.465 26.9171 22.3009C27.0196 22.1369 27.1222 21.9729 27.2247 21.8088C27.2862 21.7473 27.3374 21.6858 27.3785 21.6243C27.44 21.5423 27.4912 21.4603 27.5322 21.3783C27.5732 21.3168 27.6142 21.2553 27.6552 21.1937C27.6963 21.1117 27.768 21.0502 27.8705 21.0092C27.973 20.8862 28.0756 20.7529 28.1781 20.6094C28.2806 20.4659 28.3934 20.3223 28.5164 20.1788C28.6599 19.9533 28.8137 19.7585 28.9777 19.5945C29.1417 19.4099 29.3058 19.2254 29.4698 19.0409C29.6338 18.8564 29.7978 18.6821 29.9619 18.5181C30.1464 18.3335 30.3412 18.1592 30.5462 17.9952H30.5155C30.577 17.9542 30.618 17.9235 30.6385 17.903C30.659 17.8619 30.7 17.8209 30.7615 17.7799C30.8025 17.5954 30.8435 17.5236 30.8845 17.5646C30.8845 17.5441 30.8845 17.5339 30.8845 17.5339C30.9255 17.4724 30.9563 17.4314 30.9768 17.4109C31.0178 17.3699 31.0588 17.3186 31.0998 17.2571C31.1408 17.1546 31.1921 17.0521 31.2536 16.9495C31.3356 16.847 31.3971 16.7445 31.4381 16.642C31.5406 16.601 31.5919 16.5702 31.5919 16.5497C31.6329 16.4472 31.6842 16.3344 31.7457 16.2114C31.8277 16.0679 31.8994 15.9449 31.961 15.8424C32.043 15.7398 32.1147 15.6373 32.1762 15.5348C32.2583 15.4323 32.3403 15.3195 32.4223 15.1965C32.5453 15.0735 32.6786 14.9505 32.8221 14.8274C32.9656 14.7044 33.1296 14.5917 33.3142 14.4891H33.2834C33.3244 14.4686 33.3449 14.4584 33.3449 14.4584C33.3449 14.4379 33.3859 14.4174 33.468 14.3969C33.509 14.3764 33.5192 14.3969 33.4987 14.4584C33.4782 14.4994 33.4885 14.5199 33.5295 14.5199C33.4885 14.5814 33.468 14.6429 33.468 14.7044C33.468 14.7454 33.4474 14.7967 33.4064 14.8582ZM15.8761 19.3484C15.8761 19.3689 15.8761 19.3792 15.8761 19.3792C15.8966 19.3792 15.9068 19.3894 15.9068 19.4099V19.3792L15.8761 19.3484ZM15.8761 19.5945C15.8761 19.5945 15.8863 19.6047 15.9068 19.6252V19.4099C15.8863 19.4099 15.8761 19.4305 15.8761 19.4715C15.8761 19.492 15.8556 19.492 15.8145 19.4715L15.8761 19.6252V19.5945ZM15.9068 19.6867C15.9068 19.6662 15.9171 19.656 15.9376 19.656H15.9068C15.9068 19.656 15.8966 19.6457 15.8761 19.6252V19.656C15.8761 19.656 15.8863 19.6662 15.9068 19.6867ZM16.2759 35.1258C16.2964 35.1258 16.3066 35.1155 16.3066 35.095C16.2861 35.095 16.2759 35.0848 16.2759 35.0643C16.2759 35.0438 16.2656 35.0335 16.2451 35.0335H16.2144C16.2144 35.013 16.2041 35.0028 16.1836 35.0028C16.1836 34.9823 16.1836 34.9618 16.1836 34.9413H16.2144L16.1836 34.9105V34.9413C16.1631 34.9413 16.1529 34.9618 16.1529 35.0028C16.2349 35.0848 16.2759 35.1155 16.2759 35.095V35.1258ZM17.0755 40.0158L17.0448 40.0466H17.0755C17.055 40.0466 17.0345 40.0671 17.014 40.1081C17.014 40.1286 17.0037 40.1491 16.9832 40.1696C16.9422 40.3336 16.932 40.4054 16.9525 40.3849C16.9525 40.4054 16.9422 40.4259 16.9217 40.4464C16.9422 40.4464 16.9525 40.4362 16.9525 40.4157V40.3849L17.014 40.3541V40.2619C16.973 40.2619 16.9525 40.2619 16.9525 40.2619C16.9935 40.2414 17.014 40.2106 17.014 40.1696C17.0345 40.1286 17.055 40.0979 17.0755 40.0773V40.1081V40.0158ZM17.0755 40.3541C17.0755 40.3746 17.096 40.3849 17.137 40.3849C17.1165 40.3849 17.096 40.3746 17.0755 40.3541ZM17.4138 40.5387H17.3831C17.3831 40.4772 17.3933 40.4464 17.4138 40.4464V40.4157H17.3831L17.3215 40.4464V40.5079V40.5387H17.4138ZM17.4138 40.6002V40.5694V40.5387C17.3933 40.5387 17.3831 40.5489 17.3831 40.5694C17.3831 40.5899 17.3933 40.6002 17.4138 40.6002C17.4138 40.6002 17.4138 40.6104 17.4138 40.6309V40.6002ZM17.5061 40.5694C17.5061 40.5899 17.5163 40.6002 17.5368 40.6002L17.5061 40.5694ZM18.1212 30.8201C18.1417 30.8201 18.1519 30.8098 18.1519 30.7893H18.1212V30.8201ZM17.7521 40.6617V40.6924V40.6617ZM17.8751 41.0308V41V40.9692C17.8341 40.9692 17.8136 40.9692 17.8136 40.9692C17.8341 40.9692 17.8444 40.9487 17.8444 40.9077C17.8649 40.9077 17.8751 40.918 17.8751 40.9385C17.8751 40.918 17.8649 40.8975 17.8444 40.877V40.9077C17.8239 40.8872 17.8136 40.8872 17.8136 40.9077C17.8136 40.9282 17.8034 40.9385 17.7829 40.9385C17.8239 41.0205 17.8546 41.0513 17.8751 41.0308L17.8444 41.0615L17.8751 41.0308ZM17.9982 41.0615C17.9982 41.0615 17.9982 41.0718 17.9982 41.0923L18.0289 41.0615H17.9982ZM19.6897 39.5545L19.6589 39.5853V39.7083C19.6589 39.7083 19.6692 39.698 19.6897 39.6775V39.5545ZM19.7204 39.6468C19.7614 39.6058 19.7922 39.5648 19.8127 39.5238C19.8537 39.4622 19.8845 39.411 19.905 39.37L19.8742 39.4007C19.8742 39.3802 19.864 39.37 19.8435 39.37V39.4007C19.823 39.4007 19.8127 39.411 19.8127 39.4315C19.8127 39.4725 19.8025 39.5033 19.782 39.5238C19.782 39.5443 19.7614 39.5545 19.7204 39.5545V39.6468ZM26.1175 28.7287C26.1585 28.6672 26.1995 28.616 26.2405 28.575C26.2815 28.5339 26.3225 28.4929 26.3635 28.4519L26.302 28.4827C26.2815 28.4827 26.2508 28.4622 26.2098 28.4212C26.2098 28.4417 26.1995 28.4622 26.179 28.4827C26.179 28.4827 26.179 28.4929 26.179 28.5134C26.179 28.5545 26.1688 28.5852 26.1482 28.6057C26.1482 28.6057 26.1482 28.616 26.1482 28.6365C26.1482 28.657 26.138 28.6775 26.1175 28.698C26.1175 28.698 26.1175 28.7082 26.1175 28.7287ZM16.2144 34.9413H16.1836H16.2144ZM16.0913 34.972H16.0606H16.0913ZM16.0298 34.9413C16.0503 34.9413 16.0606 34.9515 16.0606 34.972L16.0298 34.9413ZM32.0539 22.7315V22.7007V22.7315ZM32.1462 22.7622H32.1154H32.1462ZM32.0539 22.7007V22.67V22.7007ZM33.3149 29.5591V29.5899V29.5591ZM36.0829 28.821V28.8518V28.821ZM25.2878 44.5368V44.5676V44.5368ZM46.2935 16.3037C46.314 16.3037 46.3038 16.3037 46.2628 16.3037C46.2423 16.3037 46.2423 16.3139 46.2628 16.3344C46.2218 16.3344 46.191 16.3447 46.1705 16.3652C46.15 16.3652 46.1193 16.3652 46.0782 16.3652C46.0782 16.3857 46.027 16.4165 45.9245 16.4575C45.8835 16.4575 45.822 16.478 45.7399 16.519C45.7194 16.519 45.7092 16.5292 45.7092 16.5497C45.7092 16.5497 45.6989 16.5497 45.6784 16.5497L45.6169 16.6112C45.6169 16.6317 45.6067 16.6522 45.5862 16.6728C45.5862 16.7138 45.5759 16.7343 45.5554 16.7343C45.5554 16.7343 45.5452 16.7548 45.5247 16.7958C45.4836 16.7958 45.4631 16.8163 45.4631 16.8573C45.4426 16.8778 45.4221 16.888 45.4016 16.888C45.4016 16.888 45.3914 16.8983 45.3709 16.9188H45.4016C45.4426 16.9188 45.4631 16.9188 45.4631 16.9188C45.4836 16.9188 45.4836 16.929 45.4631 16.9495C45.4426 16.9495 45.4426 16.9598 45.4631 16.9803C45.4221 16.9803 45.4016 16.9906 45.4016 17.0111C45.4016 17.0111 45.3811 17.0111 45.3401 17.0111C45.3401 17.0316 45.3094 17.0726 45.2479 17.1341C45.2069 17.1341 45.1863 17.1443 45.1863 17.1648C45.1863 17.1853 45.1658 17.1956 45.1248 17.1956C45.0633 17.2571 45.0018 17.2879 44.9403 17.2879C44.8993 17.3084 44.8685 17.3289 44.848 17.3494C44.848 17.3494 44.8275 17.3596 44.7865 17.3801C44.766 17.4006 44.7455 17.4109 44.725 17.4109C44.725 17.4109 44.7148 17.4211 44.6943 17.4416H44.6635H44.602C44.52 17.4826 44.4687 17.5134 44.4482 17.5339H44.4175H44.3867V17.5646C44.3662 17.5646 44.356 17.5749 44.356 17.5954H44.3252C44.3457 17.5954 44.356 17.6057 44.356 17.6262L44.2637 17.7184H44.2945H44.2637C44.2637 17.7184 44.2022 17.7389 44.0792 17.7799C43.9972 17.8209 43.9459 17.8414 43.9254 17.8414C43.7409 17.9235 43.6281 18.0055 43.5871 18.0875C43.5666 18.0875 43.5563 18.108 43.5563 18.149H43.4948C43.4538 18.149 43.4333 18.1387 43.4333 18.1182C43.4333 18.2413 43.3513 18.3028 43.1873 18.3028C43.2283 18.3028 43.2693 18.2823 43.3103 18.2413C43.2898 18.2413 43.2795 18.2413 43.2795 18.2413C43.2795 18.2413 43.2693 18.2515 43.2488 18.272C43.2488 18.2925 43.2385 18.2925 43.218 18.272C43.1975 18.272 43.1873 18.2823 43.1873 18.3028H43.1565C43.1155 18.3438 43.0848 18.3745 43.0642 18.395C43.0437 18.395 43.013 18.4155 42.972 18.4565C42.9515 18.4975 42.931 18.5283 42.9105 18.5488C42.89 18.5488 42.8695 18.5591 42.849 18.5796C42.849 18.5591 42.8387 18.5591 42.8182 18.5796C42.7977 18.6001 42.7875 18.6001 42.7875 18.5796L42.7259 18.6411H42.6952C42.6132 18.7231 42.5312 18.7743 42.4491 18.7948L42.4799 18.8256H42.4184C42.4184 18.8461 42.4081 18.8666 42.3876 18.8871C42.3671 18.8871 42.3569 18.8974 42.3569 18.9179H42.3261V18.9486H42.3569L42.2646 19.0409C42.2441 19.0614 42.2236 19.0716 42.2031 19.0716C42.2031 19.0921 42.1929 19.1024 42.1724 19.1024C42.1929 19.1024 42.2134 19.0921 42.2339 19.0716C42.2134 19.0921 42.1929 19.1024 42.1724 19.1024V19.1332C42.1518 19.1332 42.1313 19.1434 42.1108 19.1639C42.1108 19.1639 42.1006 19.1639 42.0801 19.1639C42.0596 19.1844 42.0391 19.2049 42.0186 19.2254C41.9981 19.2254 41.9776 19.2357 41.9571 19.2562C41.8956 19.2972 41.8238 19.3382 41.7418 19.3792C41.6803 19.4202 41.629 19.4612 41.588 19.5022C41.5675 19.5022 41.5573 19.5022 41.5573 19.5022C41.5573 19.4817 41.547 19.4715 41.5265 19.4715C41.4445 19.5535 41.3625 19.6355 41.2805 19.7175C41.1984 19.779 41.1164 19.8405 41.0344 19.902C40.9934 19.943 40.9627 19.9738 40.9422 19.9943C40.9216 19.9943 40.9011 20.0148 40.8806 20.0558C40.9011 20.0353 40.8909 20.0353 40.8499 20.0558C40.8294 20.0763 40.8191 20.0763 40.8191 20.0558L40.7576 20.1173C40.7371 20.1173 40.7269 20.1276 40.7269 20.1481C40.6859 20.1891 40.6346 20.2301 40.5731 20.2711C40.5116 20.2916 40.4603 20.3223 40.4193 20.3634H40.4501C40.4296 20.3839 40.4091 20.3941 40.3886 20.3941C40.3681 20.4146 40.3373 20.4351 40.2963 20.4556C40.2758 20.4761 40.2655 20.4966 40.2655 20.5171L40.204 20.5479H40.2655L40.081 20.7324C40.1015 20.7324 40.122 20.7222 40.1425 20.7017C40.1425 20.7017 40.122 20.7119 40.081 20.7324C39.999 20.7734 39.8862 20.8452 39.7427 20.9477C39.5992 21.0502 39.4967 21.122 39.4352 21.163C39.2916 21.245 39.1584 21.327 39.0353 21.409C38.9328 21.4705 38.8303 21.5526 38.7278 21.6551L38.6355 21.7473C38.656 21.7473 38.6355 21.7678 38.574 21.8088C38.5125 21.8293 38.4612 21.8191 38.4202 21.7781C38.3997 21.9011 38.3177 21.9934 38.1742 22.0549H38.1434C38.1434 22.0549 38.1332 22.0549 38.1127 22.0549V22.0856C38.1127 22.0856 38.0922 22.0959 38.0512 22.1164V22.0856C38.0512 22.0856 38.0409 22.0959 38.0204 22.1164H37.9897L37.8051 22.2087C37.8051 22.2087 37.8256 22.2087 37.8666 22.2087C37.8051 22.2497 37.7539 22.2907 37.7129 22.3317C37.6719 22.3727 37.6206 22.4137 37.5591 22.4547C37.5386 22.4752 37.5181 22.4855 37.4976 22.4855C37.4771 22.465 37.4566 22.465 37.4361 22.4855C37.4156 22.506 37.4053 22.5265 37.4053 22.547C37.4053 22.5675 37.3951 22.5777 37.3746 22.5777C37.3541 22.5777 37.3336 22.588 37.3131 22.6085H37.2823C37.2823 22.629 37.272 22.6392 37.2515 22.6392C37.2515 22.6392 37.2515 22.6495 37.2515 22.67C37.231 22.67 37.2003 22.6905 37.1593 22.7315C37.1798 22.7315 37.19 22.7417 37.19 22.7622C37.19 22.7622 37.1695 22.7622 37.1285 22.7622C37.108 22.7622 37.0978 22.7725 37.0978 22.793C37.0978 22.793 37.0875 22.8135 37.067 22.8545C37.026 22.8955 36.9747 22.9263 36.9132 22.9468C36.8722 22.9468 36.8312 22.9673 36.7902 23.0083C36.7902 23.0083 36.7492 23.0493 36.6672 23.1313C36.6262 23.1723 36.5954 23.2133 36.5749 23.2543H36.5442L36.4519 23.3466C36.3289 23.4286 36.2469 23.4901 36.2059 23.5311C36.2059 23.5311 36.1956 23.5414 36.1751 23.5619C36.1341 23.6029 36.0931 23.6439 36.0521 23.6849C36.0111 23.7054 35.9701 23.7362 35.9291 23.7772L35.6523 23.9617C35.5293 24.0642 35.396 24.1257 35.2525 24.1462C35.2115 24.1872 35.191 24.218 35.191 24.2385L35.1602 24.2692C35.1602 24.2692 35.1602 24.2795 35.1602 24.3C35.1192 24.3205 35.0782 24.3513 35.0372 24.3923C34.9962 24.4538 34.9347 24.5255 34.8526 24.6076C34.8526 24.6281 34.8629 24.6383 34.8834 24.6383H34.8526H34.8834C34.8629 24.6383 34.8526 24.6486 34.8526 24.6691C34.8732 24.6691 34.8732 24.6691 34.8526 24.6691C34.8526 24.6896 34.8424 24.6998 34.8219 24.6998L34.7911 24.7306C34.7911 24.7511 34.7706 24.7818 34.7296 24.8228H34.7604C34.7399 24.8638 34.7296 24.8946 34.7296 24.9151C34.7296 24.9356 34.7194 24.9664 34.6989 25.0074C34.6989 25.0074 34.6784 25.0279 34.6374 25.0689V25.0996V25.1304V25.1611H34.6066V25.1919V25.2534C34.6271 25.2534 34.6374 25.2637 34.6374 25.2842C34.6374 25.2842 34.6169 25.2842 34.5759 25.2842C34.5759 25.2842 34.5759 25.2944 34.5759 25.3149C34.5964 25.3149 34.6066 25.3252 34.6066 25.3457C34.6066 25.3867 34.5964 25.4072 34.5759 25.4072C34.6169 25.4072 34.6476 25.3969 34.6681 25.3764C34.6476 25.3969 34.6476 25.4072 34.6681 25.4072C34.7091 25.3867 34.7296 25.3867 34.7296 25.4072L34.8219 25.3457H34.8526H34.9449C34.9654 25.3252 34.9962 25.3149 35.0372 25.3149C35.0782 25.2944 35.1089 25.2842 35.1294 25.2842C35.1499 25.2842 35.1807 25.2739 35.2217 25.2534H35.2832H35.314C35.314 25.2534 35.3345 25.2432 35.3755 25.2227C35.396 25.2227 35.4165 25.2124 35.437 25.1919H35.4985C35.478 25.1714 35.4575 25.1611 35.437 25.1611L35.7138 25.0689H35.6215H35.7138C35.7343 25.0484 35.7958 25.0381 35.8983 25.0381C35.9393 25.0381 35.9701 25.0381 35.9906 25.0381C36.0316 25.0176 36.0726 25.0074 36.1136 25.0074H36.3596C36.4007 25.0074 36.4314 25.0074 36.4519 25.0074C36.4724 24.9869 36.4929 24.9766 36.5134 24.9766H37.0363H37.067C37.067 24.9356 37.0875 24.9356 37.1285 24.9766C37.19 24.9766 37.231 24.9664 37.2515 24.9459C37.2926 24.9254 37.3541 24.9151 37.4361 24.9151H37.5283C37.5283 24.9151 37.5693 24.9151 37.6514 24.9151H37.6821H37.7436C37.7641 24.9151 37.7744 24.9151 37.7744 24.9151C37.7744 24.8946 37.7846 24.8843 37.8051 24.8843C37.8461 24.8843 37.8666 24.8638 37.8666 24.8228C37.9692 24.8228 38.0512 24.8126 38.1127 24.7921C38.2152 24.7921 38.287 24.7818 38.328 24.7613H38.3587C38.3587 24.7613 38.4407 24.7408 38.6048 24.6998C38.6458 24.6588 38.6868 24.6383 38.7278 24.6383C38.7893 24.6178 38.8201 24.6178 38.8201 24.6383V24.6076C38.9226 24.6076 38.9943 24.5973 39.0353 24.5768C39.2404 24.5358 39.3839 24.505 39.4659 24.4845C39.4864 24.4845 39.4967 24.4948 39.4967 24.5153C39.5172 24.5153 39.5377 24.5153 39.5582 24.5153C39.6402 24.4743 39.7119 24.4538 39.7735 24.4538C39.8145 24.4333 39.8555 24.423 39.8965 24.423C39.9375 24.423 39.9785 24.4128 40.0195 24.3923H40.1425C40.1835 24.3923 40.2245 24.382 40.2655 24.3615H40.4808C40.5628 24.341 40.6756 24.3308 40.8191 24.3308C40.8601 24.3308 40.9114 24.341 40.9729 24.3615C41.0344 24.3615 41.0857 24.3615 41.1267 24.3615C41.1677 24.3615 41.2087 24.3718 41.2497 24.3923C41.2702 24.3923 41.26 24.3923 41.2189 24.3923C41.1984 24.3923 41.1882 24.4025 41.1882 24.423C41.1472 24.423 41.1164 24.4333 41.0959 24.4538C41.0754 24.4538 41.0447 24.4538 41.0037 24.4538C40.9832 24.4948 40.9524 24.5153 40.9114 24.5153C40.8909 24.5153 40.8601 24.5255 40.8191 24.546C40.7576 24.546 40.7064 24.5563 40.6654 24.5768C40.6243 24.5768 40.5833 24.5871 40.5423 24.6076H40.5731C40.4091 24.6486 40.286 24.6691 40.204 24.6691C40.1425 24.6896 40.081 24.7101 40.0195 24.7306C39.9785 24.7306 39.9272 24.7306 39.8657 24.7306C39.8247 24.7511 39.794 24.7613 39.7735 24.7613C39.753 24.7613 39.7222 24.7716 39.6812 24.7921C39.7017 24.7921 39.6914 24.7921 39.6504 24.7921C39.6299 24.7921 39.6299 24.7818 39.6504 24.7613L39.5582 24.7921C39.5787 24.7921 39.5992 24.8023 39.6197 24.8228H39.7119C39.7735 24.7613 39.8657 24.7511 39.9887 24.7921C40.0913 24.7716 40.204 24.7613 40.327 24.7613C40.4501 24.7408 40.5731 24.7203 40.6961 24.6998C40.7166 24.6998 40.7269 24.6998 40.7269 24.6998C40.7474 24.6793 40.7679 24.6691 40.7884 24.6691C40.8089 24.6691 40.8396 24.6691 40.8806 24.6691C40.9216 24.6486 40.9934 24.6281 41.0959 24.6076C41.1779 24.5871 41.2702 24.5665 41.3727 24.546C41.4957 24.5255 41.6188 24.5255 41.7418 24.546C41.8648 24.5665 41.9878 24.5973 42.1108 24.6383C42.2339 24.6588 42.3364 24.6896 42.4184 24.7306C42.6029 24.8331 42.6952 24.9049 42.6952 24.9459C42.7157 24.9459 42.7259 24.9561 42.7259 24.9766C42.7464 24.9766 42.767 24.9766 42.7875 24.9766L42.9412 25.1304C42.9822 25.1714 43.0232 25.2329 43.0642 25.3149C43.0642 25.3149 43.0745 25.3252 43.095 25.3457C43.177 25.3867 43.2488 25.4174 43.3103 25.4379C43.3513 25.4789 43.3923 25.52 43.4333 25.561C43.4948 25.5815 43.5461 25.6122 43.5871 25.6532C43.5666 25.6327 43.5563 25.6122 43.5563 25.5917C43.5563 25.5917 43.5461 25.5815 43.5256 25.561C43.5256 25.52 43.5153 25.4892 43.4948 25.4687C43.4538 25.4277 43.4231 25.3969 43.4026 25.3764C43.3821 25.3354 43.3513 25.2944 43.3103 25.2534V25.1919C43.2693 25.1509 43.1873 25.0894 43.0642 25.0074C42.9822 24.9254 42.9105 24.8638 42.849 24.8228C42.7259 24.7408 42.6234 24.6588 42.5414 24.5768C42.5209 24.5563 42.5107 24.5563 42.5107 24.5768C42.5107 24.5768 42.5004 24.5665 42.4799 24.546C42.4799 24.5255 42.4902 24.5255 42.5107 24.546C42.5312 24.546 42.5312 24.5358 42.5107 24.5153C42.5722 24.5153 42.6234 24.5255 42.6644 24.546C42.6644 24.5255 42.6849 24.5153 42.7259 24.5153C42.7464 24.5153 42.7567 24.5255 42.7567 24.546C42.7772 24.546 42.7977 24.546 42.8182 24.546C42.8387 24.546 42.8592 24.5563 42.8797 24.5768C42.9207 24.5768 42.9515 24.5871 42.972 24.6076C43.1565 24.6896 43.2898 24.7818 43.3718 24.8843C43.4128 24.8843 43.4333 24.8946 43.4333 24.9151C43.4538 24.9356 43.4743 24.9459 43.4948 24.9459C43.4743 24.9459 43.4743 24.9561 43.4948 24.9766C43.5153 24.9766 43.5153 24.9766 43.4948 24.9766L43.5563 25.0381V25.0689C43.6178 25.1304 43.6588 25.1816 43.6794 25.2227C43.6999 25.2227 43.7101 25.2329 43.7101 25.2534C43.7101 25.2534 43.6999 25.2534 43.6794 25.2534L43.7409 25.3149L43.7716 25.3457L43.8024 25.3764V25.3149L43.8639 25.3764C43.8844 25.3969 43.8946 25.4174 43.8946 25.4379C43.8946 25.4379 43.9049 25.4482 43.9254 25.4687V25.4072V25.4379C43.9459 25.4789 43.9767 25.561 44.0177 25.684C44.0177 25.7045 44.0177 25.725 44.0177 25.7455C44.0382 25.766 44.0484 25.7865 44.0484 25.807C44.0484 25.848 44.0484 25.8788 44.0484 25.8993C44.0689 25.8993 44.0792 25.9095 44.0792 25.93C44.0997 26.0325 44.1099 26.1248 44.1099 26.2068C44.1099 26.2888 44.1304 26.3708 44.1714 26.4529C44.1714 26.4529 44.1817 26.4734 44.2022 26.5144C44.2227 26.5144 44.2227 26.5349 44.2022 26.5759C44.2022 26.5964 44.1919 26.6169 44.1714 26.6374V26.6989C44.1919 26.7194 44.2022 26.7604 44.2022 26.8219V26.8834C44.2022 26.9449 44.2022 27.0064 44.2022 27.068C44.2227 27.1295 44.2329 27.1807 44.2329 27.2217C44.2329 27.4473 44.2124 27.6626 44.1714 27.8676C44.1304 28.0316 44.1099 28.1136 44.1099 28.1136C44.1099 28.1341 44.0997 28.1546 44.0792 28.1751C44.0792 28.1956 44.0792 28.2161 44.0792 28.2367V28.2982C44.0792 28.3392 44.0689 28.3699 44.0484 28.3904C44.0484 28.4109 44.0484 28.4417 44.0484 28.4827V28.5134V28.5442H44.0792C44.0587 28.5442 44.0484 28.5545 44.0484 28.575C44.0689 28.5955 44.0689 28.6057 44.0484 28.6057C44.0484 28.6057 44.0587 28.616 44.0792 28.6365C44.0792 28.6775 44.0689 28.7082 44.0484 28.7287C44.0484 28.7287 44.0484 28.739 44.0484 28.7595V28.821C44.0484 28.862 44.0382 28.8928 44.0177 28.9133C44.0177 29.0158 43.9972 29.1491 43.9561 29.3131C43.9766 29.3131 43.9766 29.3131 43.9561 29.3131C43.9561 29.2926 43.9664 29.2823 43.9869 29.2823C43.9459 29.4463 43.9254 29.5694 43.9254 29.6514C43.9049 29.6924 43.8946 29.7231 43.8946 29.7436C43.8946 29.7642 43.8844 29.7949 43.8639 29.8359C43.8639 29.8769 43.8536 29.9077 43.8331 29.9282C43.8331 29.9692 43.8229 29.9999 43.8024 30.0204C43.8024 30.0615 43.7921 30.1025 43.7716 30.1435C43.7511 30.164 43.7306 30.1947 43.7101 30.2357V30.205V30.328C43.6896 30.3485 43.6794 30.369 43.6794 30.3895V30.4203C43.6588 30.4613 43.6486 30.4818 43.6486 30.4818C43.6486 30.4818 43.6383 30.5023 43.6178 30.5433C43.6178 30.5638 43.6076 30.574 43.5871 30.574C43.5871 30.574 43.5871 30.5843 43.5871 30.6048V30.6663C43.5871 30.6868 43.5768 30.7176 43.5563 30.7586C43.5563 30.7791 43.5563 30.8098 43.5563 30.8508C43.5563 30.9328 43.5358 31.0354 43.4948 31.1584C43.4948 31.1994 43.4846 31.2301 43.4641 31.2506C43.4436 31.2712 43.4333 31.3019 43.4333 31.3429V31.4352C43.4538 31.3942 43.4641 31.3634 43.4641 31.3429C43.4641 31.3224 43.4743 31.3019 43.4948 31.2814C43.4948 31.2609 43.4948 31.2506 43.4948 31.2506C43.5153 31.2506 43.5256 31.2404 43.5256 31.2199C43.5256 31.1584 43.5358 31.1174 43.5563 31.0969C43.5563 31.0149 43.5666 30.9636 43.5871 30.9431C43.6281 30.8201 43.6486 30.7278 43.6486 30.6663C43.6691 30.6253 43.6794 30.5945 43.6794 30.574C43.6794 30.5535 43.6896 30.5228 43.7101 30.4818L43.8024 30.2972C43.8229 30.2767 43.8229 30.2665 43.8024 30.2665C43.8024 30.2665 43.8126 30.2562 43.8331 30.2357C43.8536 30.2152 43.8536 30.2152 43.8331 30.2357C43.8331 30.2562 43.8434 30.2665 43.8639 30.2665C43.8639 30.3075 43.8639 30.328 43.8639 30.328C43.8844 30.328 43.8844 30.3485 43.8639 30.3895C43.8844 30.41 43.8946 30.4305 43.8946 30.451C43.8946 30.4715 43.9049 30.5023 43.9254 30.5433C43.9049 30.5843 43.8946 30.615 43.8946 30.6355C43.9151 30.6355 43.9254 30.656 43.9254 30.6971C43.9254 30.7381 43.9151 30.7791 43.8946 30.8201C43.8946 30.8611 43.8946 30.9021 43.8946 30.9431C43.8946 30.9636 43.8741 31.0354 43.8331 31.1584C43.8331 31.1584 43.8331 31.1994 43.8331 31.2814C43.8331 31.2609 43.8229 31.2609 43.8024 31.2814C43.8024 31.3019 43.8024 31.3019 43.8024 31.2814V31.3429C43.7819 31.3429 43.7716 31.3532 43.7716 31.3737C43.7511 31.3942 43.7409 31.4249 43.7409 31.4659C43.7409 31.4864 43.7306 31.5172 43.7101 31.5582C43.7101 31.5582 43.6999 31.5684 43.6794 31.589V31.6812V31.712C43.6794 31.712 43.6896 31.7017 43.7101 31.6812V31.8657C43.7101 31.8452 43.7204 31.835 43.7409 31.835C43.7204 31.835 43.7101 31.8452 43.7101 31.8657C43.6896 31.8863 43.6691 31.917 43.6486 31.958C43.6486 31.9785 43.6281 32.0093 43.5871 32.0503C43.5461 32.1528 43.5153 32.2143 43.4948 32.2348C43.4538 32.3168 43.4128 32.3886 43.3718 32.4501C43.3308 32.5116 43.3 32.5834 43.2795 32.6654V32.7576L43.2488 32.7884C43.2078 32.8294 43.177 32.8397 43.1565 32.8192C43.1975 32.9012 43.1873 32.9627 43.1258 33.0037C43.0848 33.0447 43.0437 33.0857 43.0027 33.1267C43.0232 33.0857 43.054 33.0447 43.095 33.0037H43.0642H43.0335C43.0335 33.0037 43.0335 33.0242 43.0335 33.0652C43.0335 33.0652 43.0232 33.0754 43.0027 33.096C43.0027 33.0754 42.9925 33.0652 42.972 33.0652L42.9412 33.096L42.972 33.1267H42.9412C42.9412 33.1062 42.931 33.1062 42.9105 33.1267H42.8797L42.9105 33.1575H42.8797C42.8797 33.178 42.8695 33.1985 42.849 33.219V33.2497C42.8285 33.2907 42.808 33.3317 42.7875 33.3727C42.767 33.3932 42.7464 33.424 42.7259 33.465H42.7567C42.7157 33.506 42.6849 33.547 42.6644 33.588C42.6644 33.6085 42.6542 33.6393 42.6337 33.6803C42.6132 33.7008 42.6029 33.7213 42.6029 33.7418C42.6029 33.7623 42.5927 33.7828 42.5722 33.8033L42.4799 33.9878C42.5209 33.9673 42.5312 33.9673 42.5107 33.9878C42.5107 34.0084 42.4902 34.0391 42.4491 34.0801C42.4286 34.1006 42.4184 34.1109 42.4184 34.1109C42.4389 34.1109 42.4389 34.1211 42.4184 34.1416V34.2646C42.3774 34.3467 42.3261 34.4287 42.2646 34.5107C42.2031 34.5722 42.1519 34.644 42.1108 34.726C42.1108 34.7465 42.1006 34.7567 42.0801 34.7567C42.0801 34.7772 42.0698 34.808 42.0493 34.849L41.9571 35.0335C41.9571 35.054 41.9468 35.0745 41.9263 35.095C41.9263 35.095 41.9263 35.1053 41.9263 35.1258C41.9058 35.1463 41.8956 35.177 41.8956 35.218L41.834 35.2796V35.3103C41.752 35.3923 41.7008 35.4641 41.6803 35.5256V35.4948C41.5778 35.6589 41.4752 35.8126 41.3727 35.9562C41.3317 35.9972 41.3112 36.0177 41.3112 36.0177C41.2292 36.1407 41.1677 36.2227 41.1267 36.2637C41.0447 36.3867 40.9832 36.4688 40.9422 36.5098C40.9011 36.5508 40.8806 36.5815 40.8806 36.602V36.6635C40.8601 36.6635 40.8499 36.6738 40.8499 36.6943C40.8499 36.6943 40.8396 36.6943 40.8191 36.6943V36.725C40.8191 36.725 40.8089 36.7353 40.7884 36.7558H40.7576C40.7576 36.7558 40.7576 36.7661 40.7576 36.7866H40.7269C40.7064 36.8276 40.6756 36.8583 40.6346 36.8788C40.6141 36.8788 40.5936 36.8993 40.5731 36.9403C40.5936 36.9608 40.6038 36.9608 40.6038 36.9403C40.5628 36.9813 40.5218 37.0326 40.4808 37.0941C40.4603 37.1556 40.4296 37.2069 40.3886 37.2479C40.3681 37.2684 40.3476 37.2786 40.327 37.2786C40.3065 37.2786 40.286 37.2889 40.2655 37.3094C40.245 37.3299 40.2348 37.3504 40.2348 37.3709V37.4017L40.1733 37.4632H40.1425C40.1425 37.5042 40.1323 37.5247 40.1118 37.5247C40.1118 37.5452 40.0913 37.5759 40.0503 37.6169C40.0708 37.6169 40.081 37.6272 40.081 37.6477C40.081 37.6477 40.0605 37.6477 40.0195 37.6477C39.999 37.6682 39.9887 37.6785 39.9887 37.6785C40.0092 37.6785 40.0092 37.6887 39.9887 37.7092V37.7707C39.9477 37.8117 39.9067 37.8527 39.8657 37.8937C39.8247 37.9142 39.7837 37.945 39.7427 37.986V38.0168C39.7222 38.0168 39.6914 38.068 39.6504 38.1705C39.6299 38.2115 39.5992 38.2525 39.5582 38.2936C39.5377 38.3141 39.5172 38.3346 39.4967 38.3551C39.4762 38.3551 39.4557 38.3756 39.4352 38.4166V38.3858C39.3531 38.5088 39.2916 38.5909 39.2506 38.6319C39.2506 38.6524 39.2301 38.6626 39.1891 38.6626C39.1686 38.7036 39.1379 38.7549 39.0968 38.8164C39.0763 38.8574 39.0456 38.8984 39.0046 38.9394C38.9636 38.9804 38.9226 39.0214 38.8816 39.0624C38.8611 39.1034 38.8303 39.1444 38.7893 39.1855C38.6458 39.329 38.533 39.4315 38.451 39.493C38.4305 39.493 38.4202 39.5033 38.4202 39.5238C38.4202 39.5238 38.41 39.5238 38.3895 39.5238C38.3485 39.5238 38.3382 39.5135 38.3587 39.493C38.3792 39.4725 38.3792 39.4622 38.3587 39.4622C38.3792 39.4417 38.3895 39.4315 38.3895 39.4315C38.3895 39.411 38.41 39.3802 38.451 39.3392C38.4305 39.3187 38.4407 39.2675 38.4817 39.1855C38.5022 39.1855 38.533 39.1342 38.574 39.0317C38.615 38.9907 38.6355 38.9497 38.6355 38.9087C38.5945 38.9497 38.574 38.9804 38.574 39.0009C38.533 39.0009 38.5125 39.0112 38.5125 39.0317C38.4305 39.1547 38.369 39.2367 38.328 39.2777C38.287 39.3187 38.246 39.3597 38.205 39.4007C38.1844 39.4212 38.1537 39.452 38.1127 39.493C38.0512 39.5545 37.9384 39.6468 37.7744 39.7698C37.7744 39.7698 37.7539 39.78 37.7129 39.8006C37.6924 39.8006 37.6924 39.7903 37.7129 39.7698C37.7334 39.7493 37.7334 39.739 37.7129 39.739C37.7129 39.739 37.7334 39.698 37.7744 39.616C37.7744 39.5955 37.7744 39.575 37.7744 39.5545C37.7949 39.534 37.8051 39.5135 37.8051 39.493C37.8461 39.452 37.8666 39.4212 37.8666 39.4007C37.8666 39.3802 37.8769 39.3597 37.8974 39.3392C37.8974 39.3187 37.9077 39.3085 37.9282 39.3085C37.8871 39.329 37.8564 39.3495 37.8359 39.37C37.8359 39.37 37.8154 39.3802 37.7744 39.4007H37.8051C37.8256 39.4007 37.8051 39.4315 37.7436 39.493C37.7231 39.5135 37.7129 39.534 37.7129 39.5545C37.6719 39.5955 37.6514 39.616 37.6514 39.616C37.6514 39.5955 37.6411 39.6058 37.6206 39.6468H37.5898C37.5693 39.6673 37.5591 39.698 37.5591 39.739C37.5181 39.7595 37.4771 39.8108 37.4361 39.8928C37.4566 39.8723 37.4566 39.8723 37.4361 39.8928C37.4361 39.9133 37.4156 39.9338 37.3746 39.9543C37.3541 39.9543 37.3438 39.9646 37.3438 39.9851C37.3233 40.0056 37.3131 40.0261 37.3131 40.0466C37.3131 40.0466 37.3028 40.0568 37.2823 40.0773C37.2618 40.1184 37.2105 40.1799 37.1285 40.2619C37.0875 40.3029 37.0465 40.3336 37.0055 40.3541C36.985 40.3541 36.9542 40.3746 36.9132 40.4157V40.4464C36.8927 40.4464 36.862 40.4772 36.821 40.5387C36.8005 40.5797 36.7697 40.6207 36.7287 40.6617C36.7287 40.6822 36.7185 40.6924 36.698 40.6924C36.698 40.6924 36.698 40.7027 36.698 40.7232C36.6569 40.7642 36.6364 40.7847 36.6364 40.7847L36.5749 40.8462C36.5339 40.8872 36.5032 40.918 36.4827 40.9385C36.4622 40.9385 36.4314 40.959 36.3904 41C36.3699 41.041 36.3186 41.1025 36.2366 41.1845C36.1956 41.2255 36.1649 41.246 36.1444 41.246C36.1239 41.2665 36.0931 41.2973 36.0521 41.3383C36.0111 41.3383 35.9906 41.3588 35.9906 41.3998C35.9496 41.4203 35.8881 41.4716 35.8061 41.5536C35.765 41.5946 35.724 41.6254 35.683 41.6459C35.6625 41.6664 35.6318 41.6971 35.5908 41.7381L35.4985 41.8304C35.4575 41.8714 35.4267 41.8919 35.4062 41.8919C35.3242 41.9739 35.2627 42.0252 35.2217 42.0457C35.1397 42.1072 35.0372 42.1789 34.9142 42.261C34.8321 42.302 34.7809 42.3327 34.7604 42.3532C34.7194 42.3737 34.6886 42.384 34.6681 42.384C34.6476 42.384 34.6271 42.3942 34.6066 42.4147C34.6066 42.4147 34.5964 42.425 34.5759 42.4455H34.5451L34.4836 42.507C34.4631 42.5275 34.4426 42.548 34.4221 42.5685C34.4221 42.589 34.4118 42.6095 34.3913 42.63C34.3503 42.671 34.3298 42.7018 34.3298 42.7223C34.3093 42.7223 34.2888 42.7325 34.2683 42.753L34.2068 42.8145C34.1863 42.8145 34.176 42.8248 34.176 42.8453C34.094 42.8863 34.0325 42.9273 33.9915 42.9683L33.8992 43.0606L33.8377 43.1221C33.7967 43.1426 33.7557 43.1939 33.7147 43.2759C33.6532 43.3374 33.5917 43.3886 33.5302 43.4296C33.4687 43.4912 33.3969 43.5527 33.3149 43.6142L33.2226 43.7064C33.2226 43.6859 33.2124 43.6859 33.1919 43.7064L33.1304 43.7372H33.0996C33.0996 43.7372 33.0791 43.7577 33.0381 43.7987L32.9766 43.8602C32.9561 43.8807 32.9356 43.891 32.9151 43.891C32.8946 43.9115 32.8741 43.932 32.8536 43.9525C32.8331 43.9525 32.8228 43.9525 32.8228 43.9525C32.8228 43.973 32.8126 43.9832 32.7921 43.9832L32.7613 44.014C32.7613 44.014 32.7818 44.014 32.8228 44.014C32.7818 44.0345 32.7511 44.055 32.7306 44.0755C32.7306 44.096 32.7203 44.1165 32.6998 44.137H32.7306H32.6998C32.6383 44.178 32.5563 44.219 32.4538 44.26C32.3512 44.301 32.2795 44.342 32.2385 44.3831C32.136 44.4241 32.0437 44.4651 31.9617 44.5061C31.9002 44.5471 31.8387 44.6086 31.7771 44.6906C31.7771 44.6906 31.7566 44.7111 31.7156 44.7521C31.6951 44.7726 31.6746 44.7829 31.6541 44.7829C31.5926 44.7829 31.5619 44.7726 31.5619 44.7521C31.5414 44.8546 31.4286 44.9264 31.2236 44.9674C31.3056 44.9264 31.3568 44.8956 31.3773 44.8751H31.3466L31.3158 44.9059C31.2953 44.9264 31.2851 44.9264 31.2851 44.9059C31.2851 44.9059 31.2748 44.9161 31.2543 44.9366V44.9059H31.2236C31.203 44.9059 31.1928 44.9161 31.1928 44.9366C31.1928 44.9366 31.1825 44.9366 31.162 44.9366C31.1825 44.9161 31.1825 44.9059 31.162 44.9059C31.1415 44.9264 31.1313 44.9264 31.1313 44.9059H31.1005L31.1313 44.9366C31.1108 44.9366 31.0903 44.9366 31.0698 44.9366C31.0698 44.9572 31.0595 44.9674 31.039 44.9674C31.0185 44.9674 31.0083 44.9777 31.0083 44.9982C31.0083 45.0187 30.998 45.0289 30.9775 45.0289L30.9468 44.9982V45.0289H30.916C30.9365 45.0084 30.9365 44.9982 30.916 44.9982C30.916 44.9982 30.9263 44.9879 30.9468 44.9674C30.9263 44.9879 30.9058 44.9982 30.8852 44.9982C30.8852 44.9982 30.875 45.0084 30.8545 45.0289C30.834 45.0289 30.8237 45.0187 30.8237 44.9982C30.8442 44.9982 30.8442 44.9982 30.8237 44.9982V45.0289C30.8237 45.0289 30.8032 45.0392 30.7622 45.0597C30.7212 45.1007 30.7007 45.1109 30.7007 45.0904C30.7007 45.0904 30.711 45.0904 30.7315 45.0904L30.7622 45.0597C30.7622 45.0597 30.752 45.0699 30.7315 45.0904C30.711 45.0904 30.6905 45.1007 30.67 45.1212H30.6392V45.0904L30.5469 45.1827C30.5264 45.1827 30.5162 45.1827 30.5162 45.1827C30.5162 45.2032 30.5059 45.2134 30.4854 45.2134C30.5059 45.2339 30.4854 45.2544 30.4239 45.275C30.3829 45.2955 30.3419 45.2955 30.3009 45.275C30.3009 45.275 30.2906 45.2852 30.2701 45.3057C30.2496 45.3672 30.2086 45.4082 30.1471 45.4287C30.0856 45.4697 30.0241 45.5107 29.9626 45.5517C29.9421 45.5517 29.9318 45.562 29.9318 45.5825C29.9113 45.5825 29.8908 45.5928 29.8703 45.6133H29.8396C29.7986 45.6543 29.7678 45.6748 29.7473 45.6748C29.7268 45.6748 29.6961 45.685 29.655 45.7055H29.6858C29.6243 45.767 29.5525 45.808 29.4705 45.8285C29.3885 45.8696 29.3372 45.9003 29.3167 45.9208C29.2757 45.9413 29.245 45.9516 29.2245 45.9516C29.1835 45.9721 29.1527 45.9926 29.1322 46.0131C29.0912 46.0336 29.0502 46.0541 29.0092 46.0746C28.9682 46.1156 28.9067 46.1566 28.8247 46.1976C28.7426 46.2386 28.7016 46.2591 28.7016 46.2591C28.6811 46.2591 28.6709 46.2591 28.6709 46.2591C28.6504 46.2796 28.6299 46.2899 28.6094 46.2899C28.5479 46.3104 28.4761 46.3411 28.3941 46.3821C28.3531 46.4026 28.3018 46.4129 28.2403 46.4129C28.1788 46.4334 28.1275 46.4641 28.0865 46.5052C28.025 46.5052 27.9738 46.5154 27.9328 46.5359C27.8918 46.5359 27.8713 46.5359 27.8713 46.5359C27.8507 46.5564 27.82 46.5667 27.779 46.5667C27.7585 46.5667 27.7482 46.5667 27.7482 46.5667C27.7482 46.5872 27.7277 46.5872 27.6867 46.5667C27.6457 46.5667 27.6457 46.5564 27.6867 46.5359C27.7072 46.5359 27.7072 46.5359 27.6867 46.5359C27.7277 46.5154 27.7585 46.4949 27.779 46.4744C27.7995 46.4744 27.8302 46.4641 27.8713 46.4436C27.8713 46.4231 27.8918 46.3924 27.9328 46.3514C27.8507 46.3924 27.7892 46.4129 27.7482 46.4129L27.779 46.4436C27.574 46.4847 27.4509 46.5052 27.4099 46.5052H27.2562H27.2254C27.1229 46.5667 27.0204 46.6179 26.9178 46.6589C26.7538 46.7409 26.5898 46.8127 26.4258 46.8742C26.2412 46.9562 26.067 47.028 25.9029 47.0895V47.1203C25.8209 47.1203 25.7697 47.1305 25.7492 47.151C25.7286 47.1715 25.6671 47.192 25.5646 47.2125C25.5031 47.2125 25.5134 47.1818 25.5954 47.1203C25.6569 47.0792 25.6671 47.0485 25.6261 47.028C25.7286 46.9665 25.8107 46.905 25.8722 46.8435C25.9132 46.8025 25.9849 46.7512 26.0875 46.6897C26.0054 46.7307 25.9542 46.7614 25.9337 46.782C25.8722 46.782 25.8414 46.7717 25.8414 46.7512C25.7799 46.8127 25.7184 46.864 25.6569 46.905C25.5749 46.9665 25.4929 47.0177 25.4108 47.0587C25.3493 47.0998 25.2776 47.1305 25.1956 47.151C25.1135 47.1715 25.0418 47.2023 24.9803 47.2433C24.7547 47.3048 24.5292 47.3355 24.3037 47.3355H24.3344C24.2934 47.315 24.2729 47.315 24.2729 47.3355C24.2524 47.356 24.2217 47.3458 24.1806 47.3048C24.1601 47.2843 24.1704 47.2638 24.2114 47.2433C24.2319 47.2433 24.2217 47.2228 24.1806 47.1818C24.2011 47.1818 24.2217 47.1715 24.2422 47.151C24.1806 47.1715 24.1089 47.2023 24.0269 47.2433C23.9038 47.2843 23.7808 47.3253 23.6578 47.3663C23.5143 47.4073 23.3913 47.4483 23.2887 47.4893C22.9197 47.5918 22.5609 47.6431 22.2123 47.6431C22.1713 47.6226 22.1406 47.6226 22.1201 47.6431C22.0996 47.6636 22.0688 47.6533 22.0278 47.6123C21.9868 47.6123 21.997 47.6021 22.0585 47.5816C22.0996 47.5611 22.0996 47.5303 22.0585 47.4893C22.1201 47.4483 22.1713 47.4176 22.2123 47.3971C22.2328 47.3765 22.2841 47.356 22.3661 47.3355C22.3661 47.274 22.3969 47.2125 22.4584 47.151C22.5199 47.11 22.5711 47.069 22.6121 47.028C22.7147 47.0075 22.7967 46.9665 22.8582 46.905C22.8992 46.864 22.9504 46.823 23.012 46.782H22.9812C23.0837 46.7409 23.176 46.6897 23.258 46.6282C23.34 46.5872 23.422 46.5462 23.504 46.5052C23.6066 46.4641 23.6988 46.4231 23.7808 46.3821C23.8628 46.3616 23.9551 46.3309 24.0576 46.2899C24.0986 46.2489 24.1601 46.2079 24.2422 46.1668C24.2627 46.1463 24.2729 46.1258 24.2729 46.1053C24.2729 46.0848 24.2934 46.0643 24.3344 46.0438C24.3139 45.9823 24.3139 45.9311 24.3344 45.8901C24.3549 45.849 24.3754 45.808 24.3959 45.767C24.4574 45.7465 24.5087 45.685 24.5497 45.5825V45.5517C24.5087 45.5723 24.4882 45.5825 24.4882 45.5825C24.4677 45.603 24.4369 45.6235 24.3959 45.644C24.3549 45.644 24.3242 45.644 24.3037 45.644C24.2832 45.6645 24.2524 45.6748 24.2114 45.6748C24.1704 45.6953 24.1191 45.7055 24.0576 45.7055H23.9961C23.9756 45.7055 23.9756 45.6953 23.9961 45.6748L24.0884 45.5825C24.0884 45.562 24.1089 45.5312 24.1499 45.4902C24.1909 45.4697 24.2319 45.439 24.2729 45.398C24.3139 45.3775 24.3447 45.357 24.3652 45.3365C24.3652 45.316 24.3857 45.2955 24.4267 45.275C24.5087 45.2339 24.5702 45.2134 24.6112 45.2134C24.6112 45.1724 24.6215 45.1519 24.642 45.1519C24.6625 45.1519 24.6727 45.1417 24.6727 45.1212C24.6727 45.1417 24.683 45.1417 24.7035 45.1212C24.7035 45.1212 24.7035 45.1314 24.7035 45.1519L24.7342 45.1212H24.765C24.806 45.1007 24.8368 45.0802 24.8573 45.0597C24.8573 45.0597 24.8778 45.0494 24.9188 45.0289H24.9495L25.011 44.9674L24.9803 44.9366L25.0725 44.8444H25.0418H25.0725C25.093 44.8239 25.1135 44.8136 25.1341 44.8136C25.1546 44.8136 25.1853 44.8034 25.2263 44.7829C25.3083 44.7419 25.3596 44.7111 25.3801 44.6906C25.4006 44.6906 25.4108 44.6804 25.4108 44.6599C25.4108 44.6599 25.4211 44.6599 25.4416 44.6599C25.4416 44.6393 25.4314 44.6393 25.4108 44.6599C25.3903 44.6804 25.3698 44.6906 25.3493 44.6906C25.3493 44.6906 25.3493 44.7009 25.3493 44.7214C25.3083 44.7419 25.2981 44.7316 25.3186 44.6906C25.3186 44.6496 25.2981 44.6393 25.2571 44.6599V44.6291C25.2571 44.6291 25.2673 44.6086 25.2878 44.5676H25.2571H25.2878C25.2878 44.5471 25.2981 44.5368 25.3186 44.5368C25.3186 44.5368 25.3186 44.5471 25.3186 44.5676C25.3186 44.5471 25.3288 44.5368 25.3493 44.5368C25.3493 44.5368 25.3493 44.5266 25.3493 44.5061H25.3801L25.3493 44.5368C25.3698 44.5368 25.3801 44.5266 25.3801 44.5061H25.4108C25.4314 44.4856 25.4621 44.4753 25.5031 44.4753C25.5031 44.4548 25.5236 44.4446 25.5646 44.4446C25.5031 44.4446 25.4621 44.4548 25.4416 44.4753C25.4416 44.4548 25.4519 44.4446 25.4724 44.4446L25.5031 44.4138V44.3831L25.5646 44.3215C25.5851 44.301 25.5954 44.2805 25.5954 44.26H25.6261V44.2293C25.6261 44.2498 25.6364 44.2498 25.6569 44.2293H25.6876C25.6876 44.2293 25.7081 44.2088 25.7492 44.1678V44.1985C25.7697 44.178 25.7799 44.1678 25.7799 44.1678C25.8004 44.1678 25.8107 44.1575 25.8107 44.137C25.8107 44.137 25.8209 44.137 25.8414 44.137C25.8824 44.1165 25.9337 44.096 25.9952 44.0755C26.0362 44.055 26.0772 44.0345 26.1182 44.014C26.1182 44.014 26.0977 44.014 26.0567 44.014C26.0977 43.973 26.1387 43.9422 26.1797 43.9217C26.2207 43.9012 26.2617 43.8807 26.3027 43.8602C26.3643 43.7987 26.4463 43.7475 26.5488 43.7064C26.5898 43.6859 26.6205 43.6757 26.641 43.6757C26.641 43.6757 26.6616 43.6654 26.7026 43.6449C26.7231 43.6449 26.7538 43.6244 26.7948 43.5834C26.8153 43.5424 26.8256 43.5322 26.8256 43.5527C26.8871 43.5322 26.9178 43.5117 26.9178 43.4912C26.9383 43.5117 26.9589 43.5117 26.9794 43.4912C26.9794 43.4912 26.9999 43.4809 27.0409 43.4604C27.0614 43.4399 27.1126 43.4091 27.1946 43.3681C27.1536 43.3681 27.1434 43.3579 27.1639 43.3374C27.1844 43.3169 27.2151 43.3169 27.2562 43.3374C27.2972 43.2964 27.3177 43.2759 27.3177 43.2759L27.3792 43.2144C27.4612 43.1734 27.6047 43.1118 27.8097 43.0298C27.8507 43.0298 27.9328 42.9786 28.0558 42.8761C28.1583 42.794 28.2198 42.753 28.2403 42.753C28.3223 42.712 28.3941 42.6813 28.4556 42.6608H28.4248C28.4864 42.6198 28.5581 42.5788 28.6401 42.5378C28.7016 42.5172 28.7631 42.4865 28.8247 42.4455H28.9169C29.0604 42.343 29.204 42.261 29.3475 42.1994C29.409 42.1584 29.4705 42.1174 29.532 42.0764C29.614 42.0559 29.6858 42.0252 29.7473 41.9842C29.8293 41.9432 29.9011 41.9124 29.9626 41.8919C30.0446 41.8509 30.1164 41.7894 30.1779 41.7074C30.2599 41.6459 30.3522 41.5946 30.4547 41.5536C30.4957 41.5126 30.5264 41.4921 30.5469 41.4921C30.5674 41.4921 30.5982 41.4818 30.6392 41.4613H30.67C30.6905 41.4408 30.711 41.4101 30.7315 41.3691C30.752 41.3486 30.7725 41.3383 30.793 41.3383C30.834 41.3178 30.8442 41.3076 30.8237 41.3076C30.8237 41.3076 30.8442 41.2973 30.8852 41.2768C30.9058 41.2768 30.9263 41.2665 30.9468 41.246L31.0083 41.1845C30.8442 41.2665 30.711 41.3178 30.6085 41.3383V41.3691C30.6085 41.3691 30.5879 41.3691 30.5469 41.3691C30.5264 41.3691 30.5264 41.3588 30.5469 41.3383C30.5674 41.3383 30.5674 41.3281 30.5469 41.3076L30.6392 41.2153C30.6392 41.1948 30.67 41.1538 30.7315 41.0923C30.7725 41.0718 30.793 41.0513 30.793 41.0308C30.8135 41.0103 30.834 40.9897 30.8545 40.9692C30.916 40.9077 30.9775 40.8565 31.039 40.8155C31.121 40.754 31.1928 40.7027 31.2543 40.6617C31.2748 40.6412 31.2953 40.6309 31.3158 40.6309C31.3363 40.6104 31.3568 40.5899 31.3773 40.5694C31.3773 40.5694 31.3876 40.5694 31.4081 40.5694L31.4388 40.5387H31.4696C31.5106 40.5182 31.5414 40.4977 31.5619 40.4772C31.5824 40.4567 31.6131 40.4362 31.6541 40.4157C31.6541 40.4157 31.6644 40.4157 31.6849 40.4157L31.7771 40.3234C31.7771 40.3234 31.7669 40.3131 31.7464 40.2926C31.7669 40.2721 31.7874 40.2619 31.8079 40.2619C31.8284 40.2414 31.8489 40.2106 31.8694 40.1696C31.8489 40.1901 31.8284 40.2004 31.8079 40.2004C31.8284 40.2004 31.8387 40.2004 31.8387 40.2004C31.8387 40.1799 31.8489 40.1696 31.8694 40.1696C31.9104 40.1491 31.9822 40.1184 32.0847 40.0773C32.1872 40.0363 32.259 40.0056 32.3 39.9851C32.382 39.9441 32.464 39.9031 32.546 39.8621C32.628 39.8211 32.6895 39.7698 32.7306 39.7083C32.7511 39.6878 32.7613 39.6673 32.7613 39.6468C32.7613 39.6263 32.7818 39.616 32.8228 39.616C32.8638 39.5955 32.9048 39.6058 32.9458 39.6468C32.9458 39.5443 33.0278 39.4725 33.1919 39.4315L33.2841 39.247C33.2636 39.247 33.2329 39.2572 33.1919 39.2777C33.2124 39.2572 33.2431 39.247 33.2841 39.247C33.3046 39.2265 33.3251 39.2162 33.3457 39.2162C33.3662 39.2162 33.3969 39.206 33.4379 39.1855C33.4584 39.1649 33.4687 39.1444 33.4687 39.1239C33.4892 39.1034 33.5097 39.0829 33.5302 39.0624L33.7147 38.8779C33.7557 38.8369 33.7865 38.8164 33.807 38.8164C33.8275 38.8164 33.848 38.8061 33.8685 38.7856L33.93 38.7241C33.9505 38.7036 33.9608 38.6831 33.9608 38.6626C34.0223 38.6421 34.053 38.6216 34.053 38.6011H34.0838C34.1248 38.5601 34.1453 38.5396 34.1453 38.5396C34.1658 38.4781 34.2068 38.4371 34.2683 38.4166C34.1863 38.4166 34.2068 38.3961 34.3298 38.3551C34.3298 38.3551 34.3401 38.3448 34.3606 38.3243C34.3606 38.3038 34.3606 38.2936 34.3606 38.2936C34.3811 38.2731 34.3913 38.2525 34.3913 38.232C34.4323 38.191 34.4836 38.15 34.5451 38.109C34.6271 38.068 34.6989 38.027 34.7604 37.986C34.7809 37.986 34.7911 37.9758 34.7911 37.9552L34.9449 37.8015C35.0064 37.74 35.0372 37.699 35.0372 37.6785L34.9449 37.7707C34.8219 37.8117 34.7501 37.8322 34.7296 37.8322C34.6476 37.8732 34.5759 37.8937 34.5143 37.8937L34.5451 37.9245C34.5041 37.904 34.4836 37.904 34.4836 37.9245C34.5041 37.9245 34.4938 37.9245 34.4528 37.9245C34.4323 37.9245 34.4323 37.9245 34.4528 37.9245C34.4733 37.904 34.4733 37.8835 34.4528 37.863C34.4938 37.8425 34.5143 37.8322 34.5143 37.8322C34.5143 37.8117 34.5348 37.7912 34.5759 37.7707C34.5759 37.7707 34.5964 37.7297 34.6374 37.6477C34.6784 37.6477 34.6989 37.6374 34.6989 37.6169C34.7194 37.5964 34.7501 37.5759 34.7911 37.5554H34.7604C34.8424 37.4734 34.9039 37.4222 34.9449 37.4017C34.9859 37.3607 35.0474 37.3196 35.1294 37.2786C35.1499 37.2376 35.1705 37.2171 35.191 37.2171C35.2115 37.2171 35.2217 37.2069 35.2217 37.1864C35.2217 37.2069 35.232 37.2069 35.2525 37.1864L35.314 37.1556C35.355 37.1351 35.3857 37.1146 35.4062 37.0941C35.4267 37.0736 35.4575 37.0531 35.4985 37.0326H35.5293C35.5293 37.0121 35.5395 37.0018 35.56 37.0018C35.5805 36.9813 35.5908 36.9608 35.5908 36.9403H35.6215H35.56L35.683 36.8173H35.6523H35.683C35.724 36.7763 35.7856 36.7353 35.8676 36.6943C35.8676 36.6943 35.8881 36.684 35.9291 36.6635C35.9701 36.6225 36.0111 36.602 36.0521 36.602C36.0931 36.5815 36.1341 36.5508 36.1751 36.5098C36.2366 36.4483 36.2674 36.4072 36.2674 36.3867H36.2981C36.2981 36.3867 36.3084 36.3867 36.3289 36.3867C36.3289 36.3662 36.3391 36.356 36.3596 36.356C36.3596 36.356 36.3699 36.3457 36.3904 36.3252C36.3904 36.3252 36.4007 36.315 36.4212 36.2945C36.4212 36.274 36.4212 36.2637 36.4212 36.2637C36.4417 36.2637 36.4519 36.2535 36.4519 36.233C36.4519 36.1715 36.5032 36.1612 36.6057 36.2022C36.5852 36.1407 36.6057 36.0997 36.6672 36.0792C36.7287 36.0382 36.7902 36.0074 36.8517 35.9869C36.8107 36.0074 36.7697 36.0382 36.7287 36.0792H36.7595C36.7595 36.0792 36.7697 36.0587 36.7902 36.0177C36.7902 36.0177 36.8005 36.0177 36.821 36.0177H36.8517H36.8825V35.9869H36.9132C36.9747 35.9459 37.067 35.8639 37.19 35.7409C37.2105 35.6999 37.231 35.6794 37.2515 35.6794C37.272 35.6794 37.3028 35.6589 37.3438 35.6179C37.3438 35.5974 37.3541 35.5769 37.3746 35.5564C37.4156 35.5153 37.4361 35.4948 37.4361 35.4948C37.4566 35.4538 37.4668 35.4436 37.4668 35.4641C37.4668 35.4641 37.4771 35.4436 37.4976 35.4026C37.5181 35.4026 37.5386 35.3923 37.5591 35.3718C37.5591 35.3513 37.5591 35.3411 37.5591 35.3411C37.5796 35.3411 37.5898 35.3308 37.5898 35.3103C37.6104 35.2693 37.6309 35.2488 37.6514 35.2488C37.6719 35.2283 37.6924 35.1975 37.7129 35.1565C37.6309 35.1565 37.6514 35.136 37.7744 35.095C37.7744 35.054 37.7846 35.0335 37.8051 35.0335C37.8051 34.9925 37.8154 34.9618 37.8359 34.9413C37.8769 34.8797 37.9282 34.8182 37.9897 34.7567C38.0512 34.6952 38.1127 34.6235 38.1742 34.5414H38.205C38.2255 34.5209 38.2665 34.4389 38.328 34.2954C38.41 34.1519 38.4612 34.0801 38.4817 34.0801C38.5228 34.0186 38.574 33.9571 38.6355 33.8956C38.6765 33.8341 38.7175 33.7726 38.7585 33.7111C38.8201 33.629 38.8713 33.5573 38.9123 33.4958C38.9533 33.4548 38.9738 33.4343 38.9738 33.4343C39.0148 33.3727 39.0558 33.301 39.0968 33.219C39.1584 33.137 39.2199 33.0549 39.2814 32.9729C39.3224 32.9114 39.3634 32.8499 39.4044 32.7884C39.4659 32.7269 39.5172 32.6551 39.5582 32.5731C39.6197 32.4911 39.7222 32.3783 39.8657 32.2348V32.1425V32.1118C39.8657 32.0913 39.876 32.0913 39.8965 32.1118V32.081C39.8965 32.081 39.917 32.0605 39.958 32.0195V32.0503C39.9785 32.0298 39.9887 32.0195 39.9887 32.0195C39.9887 31.999 39.999 31.9888 40.0195 31.9888C40.04 31.9478 40.0605 31.917 40.081 31.8965C40.122 31.876 40.1528 31.8452 40.1733 31.8042C40.1528 31.8042 40.1425 31.8145 40.1425 31.835C40.163 31.794 40.1835 31.7632 40.204 31.7427C40.2245 31.7222 40.245 31.6915 40.2655 31.6505C40.3065 31.5684 40.3476 31.5172 40.3886 31.4967C40.3886 31.4762 40.3988 31.4557 40.4193 31.4352C40.4603 31.3942 40.4808 31.3634 40.4808 31.3429C40.5013 31.3224 40.5116 31.3019 40.5116 31.2814L40.5731 31.2199L40.6038 31.1891V31.1276C40.6038 31.1276 40.6243 31.0866 40.6654 31.0046C40.6449 31.0251 40.6346 31.0354 40.6346 31.0354C40.6346 31.0149 40.6551 30.9944 40.6961 30.9739V30.9123V30.8508C40.7166 30.8098 40.7269 30.7893 40.7269 30.7893C40.7474 30.7688 40.7679 30.7381 40.7884 30.6971C40.8089 30.656 40.8191 30.6355 40.8191 30.6355C40.8396 30.615 40.8601 30.5843 40.8806 30.5433V30.5125V30.451C40.8806 30.41 40.8909 30.369 40.9114 30.328V30.2665V30.2357C40.9114 30.2562 40.9011 30.2665 40.8806 30.2665C40.8806 30.2665 40.8806 30.2767 40.8806 30.2972C40.8601 30.3382 40.8396 30.3793 40.8191 30.4203C40.7986 30.4613 40.7781 30.5023 40.7576 30.5433C40.7576 30.5638 40.7474 30.574 40.7269 30.574C40.6859 30.6971 40.6449 30.7893 40.6038 30.8508C40.5833 30.8918 40.5628 30.9328 40.5423 30.9739C40.5218 31.0149 40.5013 31.0559 40.4808 31.0969L40.204 31.3737C40.1835 31.3737 40.1733 31.3839 40.1733 31.4044C40.1938 31.4044 40.1835 31.4044 40.1425 31.4044C40.1425 31.4044 40.1425 31.3942 40.1425 31.3737C40.163 31.3327 40.163 31.3122 40.1425 31.3122C40.1425 31.2917 40.1528 31.2712 40.1733 31.2506C40.1733 31.2506 40.1733 31.1994 40.1733 31.0969C40.2143 31.0764 40.2348 31.0354 40.2348 30.9739C40.2963 30.8303 40.3578 30.7073 40.4193 30.6048C40.4193 30.5638 40.4193 30.5433 40.4193 30.5433C40.4398 30.5228 40.4501 30.5023 40.4501 30.4818C40.4501 30.4613 40.4603 30.4613 40.4808 30.4818V30.4203H40.5116C40.5321 30.3793 40.5423 30.3485 40.5423 30.328C40.5423 30.3075 40.5526 30.287 40.5731 30.2665C40.5731 30.246 40.5833 30.2357 40.6038 30.2357V30.1435V30.1127C40.6038 30.1332 40.5936 30.1435 40.5731 30.1435V29.9897V30.0204V29.9897L40.6346 29.9282C40.6346 29.8872 40.6449 29.8564 40.6654 29.8359C40.6859 29.7949 40.6961 29.7539 40.6961 29.7129C40.7166 29.6924 40.7269 29.6719 40.7269 29.6514C40.7884 29.5079 40.8089 29.3746 40.7884 29.2516C40.7884 29.2311 40.7781 29.2106 40.7576 29.1901L40.7884 29.1593C40.7884 29.1183 40.8089 29.0978 40.8499 29.0978C40.7474 29.0363 40.7371 28.944 40.8191 28.821V28.944L40.8499 28.9133C40.8294 28.9133 40.8191 28.903 40.8191 28.8825C40.8191 28.862 40.8191 28.8518 40.8191 28.8518C40.8396 28.8312 40.8499 28.821 40.8499 28.821V28.7902V28.7595C40.8704 28.78 40.8704 28.78 40.8499 28.7595C40.8499 28.739 40.8601 28.739 40.8806 28.7595V28.7287V28.6672C40.8806 28.6262 40.8704 28.6057 40.8499 28.6057V28.575H40.8806H40.8499H40.8806C40.8806 28.5545 40.8601 28.5237 40.8191 28.4827C40.7986 28.4827 40.7884 28.4724 40.7884 28.4519V28.4827V28.5134C40.7474 28.4724 40.7064 28.4314 40.6654 28.3904C40.6243 28.3494 40.5833 28.3084 40.5423 28.2674C40.5628 28.3084 40.5833 28.3392 40.6038 28.3597L40.5423 28.2982C40.5423 28.2777 40.5321 28.2674 40.5116 28.2674C40.5116 28.2469 40.5013 28.2367 40.4808 28.2367L40.4501 28.2059C40.4091 28.1649 40.3886 28.1444 40.3886 28.1444C40.3476 28.1239 40.3065 28.1034 40.2655 28.0829C40.2245 28.0624 40.1835 28.0419 40.1425 28.0214C40.1015 27.9804 40.0195 27.9394 39.8965 27.8983C39.835 27.8983 39.794 27.8881 39.7735 27.8676H39.7427H39.6812C39.5787 27.8266 39.4864 27.8061 39.4044 27.8061C39.3224 27.8061 39.2301 27.8061 39.1276 27.8061C39.0251 27.8266 38.9328 27.8471 38.8508 27.8676C38.7688 27.8676 38.6765 27.8881 38.574 27.9291C38.5535 27.9496 38.533 27.9599 38.5125 27.9599C38.492 27.9599 38.4612 27.9701 38.4202 27.9906C38.4202 28.0111 38.3792 28.0214 38.2972 28.0214H38.1127C38.0512 28.0829 37.9384 28.1444 37.7744 28.2059C37.7539 28.2059 37.7334 28.2161 37.7129 28.2367C37.6924 28.2367 37.6719 28.2367 37.6514 28.2367H37.5591C37.5181 28.2572 37.4771 28.2674 37.4361 28.2674C37.4156 28.2674 37.3848 28.2777 37.3438 28.2982C37.3643 28.2777 37.3848 28.2674 37.4053 28.2674C37.4258 28.2674 37.4463 28.2572 37.4668 28.2367H37.4361H37.4053H37.3746H37.3438C37.3233 28.2367 37.3131 28.2469 37.3131 28.2674H37.2208C37.2618 28.2469 37.2515 28.2469 37.19 28.2674C37.149 28.2674 37.149 28.2572 37.19 28.2367H37.1593V28.2674H37.1285C37.0465 28.3904 36.8927 28.4724 36.6672 28.5134C36.6262 28.5339 36.5852 28.5545 36.5442 28.575C36.5237 28.5955 36.4929 28.616 36.4519 28.6365H36.5134H36.4519C36.4109 28.657 36.3596 28.6775 36.2981 28.698C36.2366 28.7185 36.1751 28.7492 36.1136 28.7902V28.821H36.0829H36.0521H36.0213H36.0521H35.9906C35.9906 28.821 36.0008 28.8312 36.0213 28.8518C36.0008 28.8312 35.9906 28.8312 35.9906 28.8518V28.821C35.9906 28.821 35.9803 28.8312 35.9598 28.8518C35.9393 28.8723 35.9291 28.8928 35.9291 28.9133C35.9291 28.9338 35.9188 28.944 35.8983 28.944H35.8676C35.8676 28.944 35.8573 28.944 35.8368 28.944V28.9133C35.8163 28.9133 35.8061 28.9235 35.8061 28.944C35.8266 28.944 35.8266 28.944 35.8061 28.944L35.7753 28.9133C35.7753 28.9133 35.765 28.9235 35.7445 28.944C35.4985 29.0055 35.2935 29.108 35.1294 29.2516L35.0372 29.3438C35.0577 29.3438 35.0372 29.3541 34.9757 29.3746C34.9142 29.3951 34.8732 29.3848 34.8526 29.3438C34.8116 29.4464 34.7399 29.5181 34.6374 29.5591C34.5554 29.5796 34.4631 29.6001 34.3606 29.6206C34.4016 29.6001 34.4426 29.5899 34.4836 29.5899C34.5246 29.5694 34.5656 29.5489 34.6066 29.5284H34.5759C34.5759 29.5284 34.5656 29.5284 34.5451 29.5284C34.5451 29.5284 34.5246 29.5386 34.4836 29.5591C34.4631 29.5796 34.4528 29.5899 34.4528 29.5899C34.4528 29.5694 34.4426 29.5694 34.4221 29.5899V29.5591H34.3606L34.3298 29.5899C34.3298 29.6104 34.3196 29.6206 34.2991 29.6206C34.2991 29.6001 34.2888 29.6001 34.2683 29.6206C34.2478 29.6206 34.2375 29.6104 34.2375 29.5899H34.2068C34.2273 29.5899 34.2375 29.6001 34.2375 29.6206H34.1145V29.6514C34.094 29.6514 34.0735 29.6616 34.053 29.6821C34.0325 29.7026 34.012 29.7026 33.9915 29.6821H33.9608C33.9608 29.7026 33.9505 29.7129 33.93 29.7129V29.6821C33.9505 29.6821 33.9608 29.6719 33.9608 29.6514C33.9402 29.6719 33.9095 29.6821 33.8685 29.6821H33.8377H33.807C33.807 29.7026 33.7967 29.7129 33.7762 29.7129H33.7147C33.6942 29.7334 33.6737 29.7436 33.6532 29.7436C33.6327 29.7436 33.6224 29.7539 33.6224 29.7744C33.6019 29.7744 33.5917 29.7744 33.5917 29.7744C33.6122 29.7539 33.643 29.7436 33.684 29.7436C33.684 29.7231 33.6942 29.7129 33.7147 29.7129H33.684L33.6532 29.7436C33.6327 29.7436 33.6122 29.7539 33.5917 29.7744C33.5917 29.7539 33.5814 29.7436 33.5609 29.7436C33.5609 29.7436 33.5609 29.7539 33.5609 29.7744H33.5302C33.5507 29.7744 33.5609 29.7642 33.5609 29.7436H33.4687V29.7744C33.4687 29.7744 33.4584 29.7642 33.4379 29.7436C33.4379 29.7436 33.4482 29.7334 33.4687 29.7129C33.4892 29.7129 33.4892 29.7231 33.4687 29.7436C33.4687 29.7436 33.4789 29.7436 33.4994 29.7436L33.4687 29.7129H33.4072H33.3764C33.3764 29.7129 33.3662 29.7129 33.3457 29.7129C33.3457 29.7129 33.3354 29.7026 33.3149 29.6821C33.3149 29.6821 33.3149 29.6924 33.3149 29.7129L33.2841 29.6821H33.2534C33.2329 29.6821 33.2226 29.6719 33.2226 29.6514C33.2636 29.6104 33.2636 29.5899 33.2226 29.5899C33.2226 29.5899 33.2431 29.5796 33.2841 29.5591V29.5284H33.3149V29.5591V29.5284V29.5591H33.3764H33.4072H33.3764C33.3764 29.5591 33.3867 29.5694 33.4072 29.5899V29.5591C33.4072 29.5796 33.4277 29.5899 33.4687 29.5899H33.4994H33.5609C33.5404 29.5899 33.5199 29.5899 33.4994 29.5899C33.4789 29.5694 33.4584 29.5591 33.4379 29.5591H33.4687H33.4994H33.5302H33.5609V29.5284C33.5814 29.5284 33.5917 29.5181 33.5917 29.4976C33.6122 29.4976 33.6224 29.4976 33.6224 29.4976C33.6224 29.4771 33.6327 29.4669 33.6532 29.4669H33.684C33.684 29.4669 33.6942 29.4669 33.7147 29.4669C33.7147 29.4669 33.725 29.4566 33.7455 29.4361C33.7455 29.4361 33.766 29.4361 33.807 29.4361V29.4669C33.8275 29.4669 33.8377 29.4566 33.8377 29.4361H33.8992C33.9402 29.4156 33.9813 29.4053 34.0223 29.4053C34.0838 29.4053 34.135 29.3848 34.176 29.3438C34.176 29.3438 34.1658 29.3438 34.1453 29.3438C34.1863 29.3438 34.2068 29.3336 34.2068 29.3131C34.2068 29.3131 34.1863 29.3233 34.1453 29.3438C34.1453 29.3233 34.135 29.3131 34.1145 29.3131C34.1145 29.3131 34.0735 29.3336 33.9915 29.3746C33.9505 29.3746 33.9095 29.3848 33.8685 29.4053C33.766 29.4053 33.6942 29.4156 33.6532 29.4361H33.4687C33.4482 29.4156 33.4072 29.4053 33.3457 29.4053C33.2636 29.4463 33.1919 29.4771 33.1304 29.4976C33.0689 29.5181 33.0073 29.5386 32.9458 29.5591C32.7818 29.6206 32.6485 29.6924 32.546 29.7744C32.423 29.8154 32.3307 29.8564 32.2692 29.8974C32.2692 29.9384 32.1872 29.9384 32.0232 29.8974C31.8592 29.8564 31.7771 29.7949 31.7771 29.7129C31.5926 29.8974 31.3671 29.9384 31.1005 29.8359C30.8545 29.7744 30.6392 29.6309 30.4547 29.4053C30.5572 29.4669 30.6495 29.5284 30.7315 29.5899C30.834 29.6309 30.9365 29.6616 31.039 29.6821H30.9775C30.998 29.6206 30.9775 29.5796 30.916 29.5591C30.916 29.6001 30.8955 29.6206 30.8545 29.6206C30.8135 29.6001 30.7725 29.5796 30.7315 29.5591C30.6905 29.5386 30.67 29.5181 30.67 29.4976C30.67 29.4771 30.6495 29.4566 30.6085 29.4361C30.6085 29.4361 30.6187 29.4258 30.6392 29.4053C30.5982 29.3643 30.5777 29.3438 30.5777 29.3438C30.5982 29.3438 30.5879 29.3233 30.5469 29.2823C30.5059 29.2823 30.4752 29.2926 30.4547 29.3131C30.4342 29.2926 30.4137 29.2823 30.3932 29.2823C30.3932 29.2823 30.3829 29.2618 30.3624 29.2208C30.4239 29.2208 30.4342 29.2003 30.3932 29.1593C30.3522 29.1183 30.3624 29.0875 30.4239 29.067L30.3624 29.0055C30.3624 29.0465 30.3522 29.067 30.3317 29.067V29.0978C30.2906 29.1388 30.2394 29.1593 30.1779 29.1593C30.1574 29.2208 30.1266 29.2618 30.0856 29.2823C30.0446 29.2823 30.0036 29.2926 29.9626 29.3131C29.9216 29.2721 29.8703 29.2618 29.8088 29.2823C29.7678 29.3028 29.7268 29.3028 29.6858 29.2823H29.655C29.409 29.2003 29.2245 29.026 29.1015 28.7595C29.081 28.7595 29.0502 28.739 29.0092 28.698C29.0092 28.657 28.9887 28.616 28.9477 28.575C28.9682 28.616 28.9784 28.6262 28.9784 28.6057C28.9579 28.5647 28.9682 28.5339 29.0092 28.5134L28.9477 28.4519C28.9682 28.4314 28.9784 28.4109 28.9784 28.3904C28.9784 28.3494 28.9682 28.2982 28.9477 28.2367C28.9272 28.1546 28.9272 28.0931 28.9477 28.0521H28.9169C28.9169 28.0111 28.9374 28.0009 28.9784 28.0214C28.9579 27.9804 28.9477 27.9496 28.9477 27.9291C28.9477 27.8881 28.9272 27.8573 28.8862 27.8368V27.7753C28.8657 27.7958 28.8554 27.8061 28.8554 27.8061C28.8349 27.8061 28.8144 27.8163 28.7939 27.8368C28.7939 27.7958 28.7837 27.7548 28.7631 27.7138C28.7426 27.6523 28.7324 27.5908 28.7324 27.5293L28.6709 27.5908C28.6709 27.5908 28.6811 27.5703 28.7016 27.5293C28.7221 27.4883 28.7529 27.437 28.7939 27.3755C28.8144 27.314 28.8452 27.2525 28.8862 27.191C28.9682 27.027 29.0297 26.9244 29.0707 26.8834C29.1527 26.7809 29.2347 26.6886 29.3167 26.6066C29.3782 26.5041 29.3988 26.3811 29.3782 26.2376V26.1146C29.3372 26.094 29.3475 26.0735 29.409 26.053C29.491 26.0325 29.573 26.0428 29.655 26.0838C29.5525 25.9198 29.5423 25.8173 29.6243 25.7762C29.7063 25.7147 29.8088 25.6737 29.9318 25.6532C29.8908 25.6942 29.8601 25.725 29.8396 25.7455C29.8191 25.7455 29.7883 25.766 29.7473 25.807H29.7781C29.7986 25.8275 29.8191 25.8378 29.8396 25.8378C29.8396 25.8378 29.8396 25.807 29.8396 25.7455C29.8601 25.725 29.8806 25.725 29.9011 25.7455C29.9216 25.766 29.9318 25.7557 29.9318 25.7147L29.9934 25.7762C29.9934 25.7762 30.0139 25.766 30.0549 25.7455L30.0241 25.7147C30.0241 25.6942 30.0344 25.684 30.0549 25.684C30.0754 25.7045 30.0959 25.7147 30.1164 25.7147C30.1164 25.6737 30.1164 25.6532 30.1164 25.6532H30.1779C30.1779 25.6122 30.1676 25.5815 30.1471 25.561L30.1779 25.5302C30.1574 25.5507 30.1266 25.561 30.0856 25.561C30.0856 25.4789 30.0959 25.4174 30.1164 25.3764C30.1164 25.2739 30.1266 25.2022 30.1471 25.1611C30.1061 25.1816 30.0754 25.2022 30.0549 25.2227C30.0549 25.2227 30.0754 25.2022 30.1164 25.1611C30.1574 25.1201 30.2086 25.0689 30.2701 25.0074C30.3317 24.9254 30.3932 24.8536 30.4547 24.7921C30.5777 24.6281 30.6905 24.5153 30.793 24.4538C30.9365 24.3513 31.0595 24.2487 31.162 24.1462C31.2851 24.0232 31.3671 23.8797 31.4081 23.7157C31.4286 23.6952 31.4388 23.6439 31.4388 23.5619C31.4183 23.5414 31.4491 23.5209 31.5311 23.5004C31.6336 23.4594 31.7156 23.4696 31.7771 23.5311C31.7156 23.3466 31.7361 23.2236 31.8387 23.1621C31.9617 23.1006 32.0949 23.0595 32.2385 23.039C32.1154 23.1211 32.0334 23.1826 31.9924 23.2236H32.0232C32.0232 23.2851 32.0437 23.2953 32.0847 23.2543C32.0437 23.2338 32.0539 23.1928 32.1154 23.1313C32.136 23.1108 32.1565 23.1108 32.177 23.1313C32.1975 23.1518 32.2077 23.1518 32.2077 23.1313H32.2385C32.2385 23.1313 32.259 23.1108 32.3 23.0698C32.1975 22.9673 32.136 22.916 32.1154 22.916H32.1462C32.1257 22.9365 32.1154 22.9365 32.1154 22.916C32.0949 22.916 32.0847 22.9058 32.0847 22.8853C32.0847 22.9058 32.0744 22.9058 32.0539 22.8853C32.0539 22.8443 32.0539 22.8033 32.0539 22.7622C32.0334 22.7622 32.0232 22.752 32.0232 22.7315H32.0539C32.0539 22.6905 32.0744 22.6905 32.1154 22.7315C32.1154 22.711 32.1154 22.7007 32.1154 22.7007C32.136 22.6802 32.1462 22.6597 32.1462 22.6392C32.1667 22.6392 32.177 22.629 32.177 22.6085C32.177 22.588 32.1975 22.588 32.2385 22.6085C32.1975 22.6495 32.177 22.67 32.177 22.67C32.218 22.67 32.2282 22.67 32.2077 22.67C32.2077 22.6495 32.218 22.6392 32.2385 22.6392C32.259 22.6392 32.259 22.629 32.2385 22.6085C32.3205 22.5675 32.3717 22.5367 32.3922 22.5162C32.4333 22.5162 32.4538 22.4957 32.4538 22.4547C32.4127 22.4547 32.3717 22.465 32.3307 22.4855C32.3102 22.506 32.2795 22.5162 32.2385 22.5162C32.259 22.5162 32.2692 22.4957 32.2692 22.4547C32.2692 22.4752 32.2795 22.4855 32.3 22.4855L32.3307 22.4547H32.3615C32.3 22.4547 32.2897 22.4342 32.3307 22.3932H32.3615C32.341 22.3727 32.3307 22.3214 32.3307 22.2394C32.3512 22.1574 32.3615 22.1061 32.3615 22.0856V22.0549C32.4025 22.0754 32.4127 22.0754 32.3922 22.0549C32.3922 22.0344 32.4127 22.0344 32.4538 22.0549V21.9934C32.4743 21.9524 32.4948 21.9421 32.5153 21.9626C32.5358 21.9831 32.5563 21.9729 32.5768 21.9319H32.6075C32.628 21.9319 32.628 21.9319 32.6075 21.9319C32.587 21.9114 32.5973 21.8909 32.6383 21.8704H32.669C32.6895 21.8704 32.71 21.8601 32.7306 21.8396C32.7921 21.7986 32.8536 21.7576 32.9151 21.7166C32.9971 21.6551 33.0586 21.5936 33.0996 21.532C33.0586 21.5115 33.0381 21.5218 33.0381 21.5628C33.0586 21.5833 33.0484 21.5833 33.0073 21.5628C33.0484 21.5013 33.0996 21.45 33.1611 21.409C33.2226 21.3475 33.2739 21.286 33.3149 21.2245C33.3969 21.1015 33.4994 20.999 33.6224 20.9169C33.6635 20.8759 33.7045 20.8554 33.7455 20.8554C33.807 20.8554 33.8582 20.8349 33.8992 20.7939C33.9197 20.7939 33.9402 20.7529 33.9608 20.6709C33.9813 20.5889 34.012 20.5581 34.053 20.5786C34.094 20.5376 34.1145 20.5274 34.1145 20.5479C34.1145 20.5479 34.135 20.5274 34.176 20.4864C34.217 20.4864 34.2375 20.4761 34.2375 20.4556L34.3298 20.3634C34.3708 20.3223 34.4016 20.2916 34.4221 20.2711C34.4426 20.2301 34.4733 20.1891 34.5143 20.1481C34.4733 20.1481 34.4528 20.1378 34.4528 20.1173C34.4733 20.0763 34.5348 20.0661 34.6374 20.0866C34.6579 20.0661 34.6579 20.0456 34.6374 20.0251C34.6374 20.0045 34.6579 19.9943 34.6989 19.9943C34.6989 19.9328 34.7091 19.8815 34.7296 19.8405C34.8116 19.738 34.9142 19.6765 35.0372 19.656C35.1602 19.615 35.2832 19.5535 35.4062 19.4715V19.4407C35.4267 19.4407 35.4575 19.4099 35.4985 19.3484C35.56 19.2869 35.6215 19.2152 35.683 19.1332C35.724 19.0511 35.765 18.9896 35.8061 18.9486C35.8676 18.8871 35.9086 18.8666 35.9291 18.8871C35.9291 18.8666 35.9291 18.8564 35.9291 18.8564C35.9496 18.8564 35.9598 18.8461 35.9598 18.8256C36.0008 18.7846 36.0418 18.7641 36.0829 18.7641C36.1444 18.7436 36.1956 18.7128 36.2366 18.6718C36.3391 18.5898 36.4314 18.5181 36.5134 18.4565C36.6159 18.3745 36.7082 18.3028 36.7902 18.2413C36.8722 18.2413 36.9235 18.231 36.944 18.2105L37.2208 17.9337C37.3438 17.8517 37.4463 17.7697 37.5283 17.6877C37.6309 17.6262 37.7334 17.5749 37.8359 17.5339C37.9589 17.4724 38.0717 17.4006 38.1742 17.3186C38.2562 17.2776 38.3382 17.2468 38.4202 17.2263C38.5022 17.1853 38.5843 17.1443 38.6663 17.1033C38.7483 17.0623 38.8303 17.0418 38.9123 17.0418C38.9943 17.0213 39.0866 16.9906 39.1891 16.9495H39.1584C39.2199 16.97 39.2506 16.97 39.2506 16.9495C39.2711 16.929 39.3019 16.929 39.3429 16.9495C39.3839 16.9495 39.3839 16.97 39.3429 17.0111C39.3019 17.0316 39.3019 17.0521 39.3429 17.0726C39.3019 17.1136 39.2609 17.1546 39.2199 17.1956C39.1994 17.2161 39.1584 17.2468 39.0968 17.2879C39.1174 17.3494 39.0968 17.4109 39.0353 17.4724C38.9943 17.5339 38.9533 17.5954 38.9123 17.6569C38.8508 17.6774 38.7893 17.7184 38.7278 17.7799C38.8098 17.7594 38.8508 17.7389 38.8508 17.7184C38.8713 17.7594 38.9021 17.7594 38.9431 17.7184C38.9636 17.6979 38.9738 17.6877 38.9738 17.6877C38.9738 17.6672 38.9841 17.6467 39.0046 17.6262C39.0456 17.5851 39.0763 17.5544 39.0968 17.5339C39.1379 17.5134 39.1789 17.4826 39.2199 17.4416C39.1789 17.4416 39.1584 17.4314 39.1584 17.4109C39.1789 17.3699 39.2301 17.3699 39.3121 17.4109C39.3531 17.4109 39.3634 17.4006 39.3429 17.3801C39.3429 17.3596 39.3531 17.3494 39.3736 17.3494C39.3736 17.2879 39.3941 17.2366 39.4352 17.1956C39.5172 17.1136 39.6197 17.0623 39.7427 17.0418C39.8657 17.0008 39.9785 16.9598 40.081 16.9188C40.081 16.9188 40.0913 16.9085 40.1118 16.888L40.204 16.7958C40.163 16.7548 40.1425 16.7343 40.1425 16.7343V16.765V16.7343V16.6728C40.163 16.6522 40.1733 16.6522 40.1733 16.6728C40.1733 16.6522 40.1835 16.642 40.204 16.642L40.2348 16.6112L40.204 16.642H40.2348C40.2553 16.642 40.2553 16.6317 40.2348 16.6112C40.2553 16.6112 40.2655 16.6112 40.2655 16.6112C40.286 16.5907 40.3065 16.5805 40.327 16.5805L40.3578 16.5497C40.3373 16.5497 40.3168 16.56 40.2963 16.5805C40.2963 16.5805 40.286 16.5805 40.2655 16.5805V16.5497L40.2963 16.5805V16.5497H40.327C40.327 16.5497 40.327 16.5395 40.327 16.519L40.3578 16.396H40.3886C40.3886 16.396 40.3988 16.3857 40.4193 16.3652C40.4398 16.3447 40.4603 16.3344 40.4808 16.3344C40.5013 16.3344 40.5013 16.3344 40.4808 16.3344C40.4808 16.3139 40.4911 16.3037 40.5116 16.3037H40.5731C40.6141 16.2627 40.6449 16.2422 40.6654 16.2422C40.6859 16.2217 40.7166 16.1909 40.7576 16.1499C40.7576 16.1499 40.7474 16.1499 40.7269 16.1499C40.7679 16.1294 40.8191 16.0884 40.8806 16.0269C40.9216 15.9859 40.9524 15.9654 40.9729 15.9654C40.9934 15.9449 41.0242 15.9141 41.0652 15.8731C41.1062 15.8526 41.1267 15.8424 41.1267 15.8424C41.1472 15.8424 41.1779 15.8321 41.2189 15.8116V15.8424L41.2805 15.7193C41.3215 15.7193 41.3522 15.7091 41.3727 15.6886H41.4035C41.4035 15.6681 41.4035 15.6578 41.4035 15.6578C41.424 15.6578 41.4342 15.6476 41.4342 15.6271C41.4547 15.6066 41.4752 15.5963 41.4957 15.5963C41.5162 15.5758 41.5367 15.5553 41.5573 15.5348C41.5367 15.5348 41.5265 15.5348 41.5265 15.5348C41.547 15.5143 41.5778 15.5041 41.6188 15.5041C41.6188 15.5041 41.629 15.4938 41.6495 15.4733C41.6495 15.4733 41.6598 15.4528 41.6803 15.4118C41.7418 15.3708 41.8546 15.3093 42.0186 15.2273H42.0493L42.1724 15.1042C42.1929 15.0837 42.2134 15.0735 42.2339 15.0735C42.2544 15.053 42.2749 15.0325 42.2954 15.012L42.3261 14.9812V14.9505C42.3671 14.93 42.3979 14.9197 42.4184 14.9197C42.4389 14.9197 42.4594 14.9095 42.4799 14.889C42.5209 14.8479 42.5722 14.8172 42.6337 14.7967C42.6952 14.7557 42.7464 14.7147 42.7875 14.6737H42.849C42.8695 14.6327 42.9207 14.5917 43.0027 14.5507C43.0437 14.5301 43.095 14.4891 43.1565 14.4276C43.3205 14.3456 43.4333 14.2841 43.4948 14.2431C43.4948 14.2431 43.5358 14.2226 43.6178 14.1816C43.6383 14.1611 43.6588 14.1508 43.6794 14.1508C43.6999 14.1508 43.7306 14.1406 43.7716 14.1201H43.8639H43.9254H43.9869C44.0074 14.1406 44.0279 14.1508 44.0484 14.1508H44.2637H44.2945C44.315 14.1713 44.315 14.1816 44.2945 14.1816C44.2534 14.2226 44.2329 14.2431 44.2329 14.2431C44.2329 14.2636 44.2227 14.2841 44.2022 14.3046V14.3354C44.2022 14.3354 44.2124 14.3559 44.2329 14.3969L44.2022 14.4276V14.3969C44.1817 14.3764 44.1714 14.3661 44.1714 14.3661V14.3354L44.1099 14.3969V14.4276C44.0279 14.4686 43.9869 14.4891 43.9869 14.4891C43.9664 14.5096 43.9459 14.5199 43.9254 14.5199V14.5507C43.9254 14.5507 43.9254 14.5609 43.9254 14.5814C43.9254 14.5609 43.9356 14.5609 43.9561 14.5814V14.6122C43.9561 14.6122 43.9664 14.6224 43.9869 14.6429L43.9561 14.6122L43.9869 14.6429C44.0074 14.6224 44.0279 14.6224 44.0484 14.6429C44.0689 14.6429 44.0894 14.6327 44.1099 14.6122H44.0792C44.1202 14.5712 44.1509 14.5507 44.1714 14.5507C44.1919 14.5301 44.2227 14.4994 44.2637 14.4584C44.3047 14.4994 44.3252 14.5096 44.3252 14.4891C44.3662 14.4071 44.4175 14.3354 44.479 14.2739C44.52 14.2328 44.5507 14.2123 44.5712 14.2123C44.6123 14.2123 44.643 14.1918 44.6635 14.1508C44.7865 14.1098 44.9096 14.0996 45.0326 14.1201L45.0018 14.0893C45.0428 14.1303 45.0531 14.1406 45.0326 14.1201C45.0326 14.0996 45.0531 14.1098 45.0941 14.1508C45.1146 14.1713 45.1146 14.1918 45.0941 14.2123C45.0941 14.2123 45.1043 14.2226 45.1248 14.2431C45.1248 14.3251 45.1146 14.3764 45.0941 14.3969C45.1146 14.4584 45.1248 14.5404 45.1248 14.6429C45.0838 14.6224 45.0633 14.6327 45.0633 14.6737C45.0838 14.7147 45.0838 14.7557 45.0633 14.7967H45.0941C45.0531 14.8377 45.0326 14.8787 45.0326 14.9197C45.0736 14.8787 45.1043 14.8479 45.1248 14.8274C45.1658 14.8069 45.2069 14.7762 45.2479 14.7352C45.3299 14.6942 45.4119 14.6737 45.4939 14.6737C45.5759 14.6532 45.6682 14.6327 45.7707 14.6122C45.8117 14.6327 45.822 14.6327 45.8015 14.6122C45.8015 14.5917 45.822 14.6019 45.863 14.6429C45.904 14.6429 45.9142 14.6532 45.8937 14.6737C45.8732 14.6942 45.8732 14.7147 45.8937 14.7352C45.8732 14.7762 45.863 14.8069 45.863 14.8274C45.863 14.8479 45.8425 14.8787 45.8015 14.9197C45.8425 14.9607 45.8527 15.012 45.8322 15.0735C45.8117 15.1145 45.8015 15.1555 45.8015 15.1965C45.7604 15.1965 45.7297 15.217 45.7092 15.258C45.7092 15.299 45.6989 15.34 45.6784 15.381H45.7092C45.6272 15.5041 45.5247 15.6168 45.4016 15.7193V15.7501H45.3709C45.3709 15.7501 45.3504 15.7706 45.3094 15.8116V15.8424C45.3299 15.8424 45.3401 15.8424 45.3401 15.8424C45.3606 15.8219 45.3811 15.8116 45.4016 15.8116V15.7809C45.4016 15.7809 45.4119 15.7911 45.4324 15.8116C45.4529 15.7911 45.5042 15.7809 45.5862 15.7809H45.7399C45.7399 15.7809 45.7604 15.7911 45.8015 15.8116L45.7707 15.8424C45.7502 15.8629 45.7297 15.8731 45.7092 15.8731C45.7092 15.8731 45.6989 15.8834 45.6784 15.9039C45.6784 15.9244 45.6682 15.9449 45.6477 15.9654C45.6272 15.9654 45.6169 15.9756 45.6169 15.9961C45.5759 15.9961 45.5349 16.0166 45.4939 16.0576L45.4324 16.1192H45.4939C45.5349 16.1397 45.5349 16.1499 45.4939 16.1499C45.4734 16.1499 45.4631 16.1602 45.4631 16.1807C45.4631 16.1807 45.4734 16.1807 45.4939 16.1807H45.4016C45.3811 16.1807 45.3606 16.1807 45.3401 16.1807C45.3401 16.1602 45.3299 16.1499 45.3094 16.1499C45.2889 16.1704 45.2684 16.1807 45.2479 16.1807C45.2479 16.1807 45.2376 16.1909 45.2171 16.2114C45.1966 16.2319 45.1761 16.2422 45.1556 16.2422C45.1556 16.2422 45.1453 16.2524 45.1248 16.2729C45.1248 16.2729 45.1146 16.2627 45.0941 16.2422L45.0633 16.2729C45.0223 16.2729 44.9813 16.2934 44.9403 16.3344H44.9096H44.8788C44.8788 16.3549 44.8685 16.3652 44.848 16.3652C44.848 16.3652 44.848 16.3755 44.848 16.396H44.8788C44.8378 16.437 44.8173 16.4575 44.8173 16.4575V16.4882V16.519H44.8788H44.8173C44.7763 16.5395 44.7148 16.5702 44.6328 16.6112C44.5507 16.6317 44.479 16.6625 44.4175 16.7035L44.356 16.765H44.4175V16.7343C44.4585 16.7138 44.479 16.7035 44.479 16.7035C44.4995 16.7035 44.5302 16.6933 44.5712 16.6728C44.5918 16.6728 44.602 16.6728 44.602 16.6728C44.602 16.6522 44.6123 16.642 44.6328 16.642C44.6533 16.642 44.6635 16.642 44.6635 16.642C44.684 16.6215 44.7045 16.6112 44.725 16.6112C44.807 16.5702 44.8583 16.5497 44.8788 16.5497C44.9198 16.5497 44.9403 16.5395 44.9403 16.519C44.9813 16.519 45.0428 16.4985 45.1248 16.4575L45.3094 16.3652C45.3709 16.3447 45.4836 16.3139 45.6477 16.2729C45.7502 16.2524 45.8425 16.2422 45.9245 16.2422C46.0065 16.2217 46.0987 16.2319 46.2013 16.2729C46.2218 16.2729 46.2525 16.2832 46.2935 16.3037ZM45.3401 16.1499C45.3606 16.1294 45.3709 16.1192 45.3709 16.1192C45.3914 16.1397 45.4016 16.1499 45.4016 16.1499C45.4426 16.1499 45.4631 16.1602 45.4631 16.1807C45.4426 16.1807 45.4221 16.1807 45.4016 16.1807C45.4016 16.1602 45.3914 16.1499 45.3709 16.1499H45.3401ZM44.725 15.1965C44.725 15.1965 44.7045 15.217 44.6635 15.258H44.6943C44.7148 15.2375 44.725 15.217 44.725 15.1965ZM40.1733 16.7035V16.6728H40.1425V16.7343C40.1425 16.7138 40.1528 16.7035 40.1733 16.7035H40.1425L40.1733 16.6728V16.7035ZM32.1462 22.7622H32.1154C32.1154 22.7622 32.0949 22.7622 32.0539 22.7622C32.0539 22.7828 32.0539 22.8033 32.0539 22.8238C32.0744 22.8238 32.0847 22.834 32.0847 22.8545V22.8853H32.1154V22.8545V22.8238H32.0847C32.0847 22.7828 32.1052 22.7622 32.1462 22.7622V22.793V22.7622ZM32.177 22.8853C32.177 22.9058 32.1872 22.916 32.2077 22.916C32.1872 22.916 32.177 22.9058 32.177 22.8853ZM32.3307 23.039C32.3512 23.0185 32.3615 23.0083 32.3615 23.0083C32.382 23.0083 32.4025 22.998 32.423 22.9775H32.3615C32.341 22.998 32.3307 23.0185 32.3307 23.039ZM32.4538 26.4836V26.4529C32.4538 26.4529 32.4435 26.4631 32.423 26.4836H32.4538ZM32.4845 22.916H32.423C32.423 22.9365 32.4333 22.9468 32.4538 22.9468L32.4845 22.916ZM32.546 22.8853C32.587 22.8443 32.628 22.8135 32.669 22.793C32.6485 22.793 32.628 22.7828 32.6075 22.7622L32.5153 22.8545C32.5153 22.875 32.5153 22.8853 32.5153 22.8853C32.5358 22.8648 32.546 22.8648 32.546 22.8853ZM33.7762 26.1453L33.7455 26.1146V26.1761L33.7762 26.1453ZM33.2534 29.6206V29.5899V29.6206ZM33.3149 29.5591H33.2841C33.2636 29.5591 33.2431 29.5694 33.2226 29.5899C33.2226 29.5899 33.2329 29.5899 33.2534 29.5899H33.2226H33.2534H33.2841L33.2534 29.5591H33.3149V29.5899V29.5591ZM25.3186 44.5983V44.5676H25.2878C25.2673 44.5881 25.2571 44.6086 25.2571 44.6291H25.2878V44.5983C25.2878 44.5983 25.2981 44.5881 25.3186 44.5676V44.5983ZM25.5031 44.5983C25.5031 44.5983 25.4929 44.6086 25.4724 44.6291H25.5031V44.5983ZM30.2394 44.8751C30.3214 44.8546 30.3932 44.8136 30.4547 44.7521C30.4137 44.7726 30.3727 44.7931 30.3317 44.8136C30.3112 44.8341 30.2804 44.8546 30.2394 44.8751ZM30.7315 44.5676C30.711 44.5676 30.6905 44.5778 30.67 44.5983H30.7007L30.7315 44.5676ZM31.1313 44.2908H31.1005H31.1313ZM31.3466 41.5843H31.3773H31.3466ZM35.437 37.8015L35.4678 37.7707H35.437V37.8015ZM35.683 37.6477H35.56V37.6785C35.56 37.6785 35.5703 37.6682 35.5908 37.6477C35.5908 37.6682 35.601 37.6887 35.6215 37.7092C35.642 37.7092 35.6523 37.699 35.6523 37.6785L35.683 37.6477ZM36.2674 40.1696C36.2879 40.1491 36.3084 40.1389 36.3289 40.1389C36.3494 40.1184 36.3699 40.0876 36.3904 40.0466C36.3084 40.1286 36.2264 40.2004 36.1444 40.2619C36.0829 40.3234 36.0111 40.3849 35.9291 40.4464V40.4772L36.0213 40.3849C36.0623 40.3439 36.1034 40.3131 36.1444 40.2926C36.1854 40.2516 36.2264 40.2106 36.2674 40.1696ZM36.5134 39.9851C36.5749 39.9236 36.6159 39.8723 36.6364 39.8313C36.5954 39.8723 36.5647 39.8928 36.5442 39.8928L36.3904 40.0466C36.3904 40.0466 36.4007 40.0466 36.4212 40.0466L36.4827 39.9851H36.5134ZM36.8517 39.616L36.821 39.6468H36.7902C36.7902 39.6878 36.7697 39.7288 36.7287 39.7698H36.7595C36.7595 39.7493 36.7697 39.7288 36.7902 39.7083C36.8107 39.6878 36.821 39.6673 36.821 39.6468L36.8517 39.616ZM37.8666 35.4641C37.8666 35.4436 37.8666 35.4333 37.8666 35.4333C37.8871 35.4333 37.8974 35.4231 37.8974 35.4026C37.8974 35.4231 37.8871 35.4333 37.8666 35.4333C37.8666 35.4333 37.8666 35.4436 37.8666 35.4641ZM38.0204 35.2488C38.0409 35.2488 38.0512 35.2386 38.0512 35.218V35.2488H38.0204ZM38.1742 38.9702C38.1332 39.0112 38.1024 39.0522 38.0819 39.0932C38.0819 39.0727 38.0819 39.0624 38.0819 39.0624C38.1024 39.0624 38.1127 39.0522 38.1127 39.0317C38.1537 38.9907 38.1844 38.9497 38.205 38.9087C38.2255 38.9087 38.2357 38.8984 38.2357 38.8779C38.2152 38.8984 38.205 38.9189 38.205 38.9394C38.205 38.9394 38.1947 38.9497 38.1742 38.9702ZM38.328 38.8164C38.3075 38.8164 38.2972 38.8266 38.2972 38.8471C38.2972 38.8471 38.287 38.8471 38.2665 38.8471H38.2972L38.328 38.8164ZM38.328 38.7856V38.8164C38.369 38.7549 38.4202 38.7036 38.4817 38.6626V38.6319V38.6626C38.4407 38.6831 38.41 38.7036 38.3895 38.7241C38.3895 38.7446 38.369 38.7651 38.328 38.7856ZM38.5125 38.6319C38.5125 38.6319 38.5228 38.6216 38.5433 38.6011C38.5228 38.6011 38.5125 38.6114 38.5125 38.6319C38.5125 38.6319 38.5022 38.6319 38.4817 38.6319H38.5125ZM39.2506 37.0018C39.2711 36.9813 39.2814 36.9608 39.2814 36.9403C39.2609 36.9813 39.2096 37.0428 39.1276 37.1249H39.1584C39.1584 37.0839 39.1789 37.0634 39.2199 37.0634C39.2199 37.0428 39.2199 37.0326 39.2199 37.0326C39.2404 37.0326 39.2506 37.0223 39.2506 37.0018ZM40.8191 35.0643V35.0335L40.7884 35.0643C40.7884 35.0643 40.7986 35.0745 40.8191 35.095V35.0643ZM40.8499 35.0028L40.8191 35.0335C40.8396 35.013 40.8499 35.0028 40.8499 35.0028ZM42.7875 31.6505H42.7567C42.7772 31.6505 42.7875 31.6607 42.7875 31.6812C42.8285 31.6402 42.849 31.6197 42.849 31.6197V31.5582C42.808 31.5992 42.7875 31.63 42.7875 31.6505ZM41.465 29.3746V29.4361V29.3746ZM41.4035 35.2488C41.383 35.2488 41.3727 35.2591 41.3727 35.2796H41.4035V35.2488V35.218V35.2488ZM41.0344 28.2367C41.0549 28.2572 41.0549 28.2674 41.0344 28.2674V28.2367ZM40.9729 29.9897V30.0204C40.9729 29.9794 40.9729 29.9589 40.9729 29.9589C40.9934 29.9384 41.0037 29.9077 41.0037 29.8667V29.8974C40.9832 29.8974 40.9729 29.9487 40.9729 30.0512V29.9897ZM39.1584 24.8536H39.1276H39.1584ZM37.4361 25.4687C37.4156 25.4687 37.3951 25.4789 37.3746 25.4995C37.4361 25.4995 37.4873 25.4892 37.5283 25.4687C37.5693 25.4687 37.6309 25.4482 37.7129 25.4072H37.6514C37.5693 25.4482 37.4976 25.4687 37.4361 25.4687ZM36.0829 28.7902H36.1136V28.821C36.0931 28.8005 36.0829 28.7902 36.0829 28.7902ZM34.9142 25.9608V25.9915H34.8834C34.9039 25.9915 34.9142 25.9813 34.9142 25.9608ZM34.7604 26.0223C34.7194 26.0223 34.6886 26.0325 34.6681 26.053H34.6989C34.7194 26.053 34.7399 26.053 34.7604 26.053C34.7809 26.0325 34.8014 26.0223 34.8219 26.0223H34.7604ZM35.56 20.4864C35.5395 20.5069 35.519 20.5171 35.4985 20.5171C35.4985 20.5171 35.4883 20.5274 35.4678 20.5479C35.5088 20.5069 35.5498 20.4864 35.5908 20.4864H35.56ZM37.0363 22.3624H37.067H37.0363ZM38.574 17.9952C38.5945 17.9747 38.6048 17.9645 38.6048 17.9645C38.5843 17.985 38.574 17.9952 38.574 17.9952ZM38.6355 17.9337H38.6048C38.6253 17.9337 38.6355 17.9235 38.6355 17.903V17.9337ZM38.8508 21.1322C38.8303 21.1322 38.8201 21.1425 38.8201 21.163C38.8201 21.163 38.7995 21.1835 38.7585 21.2245L38.8508 21.1322ZM39.5582 20.6709L39.3736 20.7632H39.4044C39.3839 20.7632 39.3736 20.7734 39.3736 20.7939C39.3736 20.7939 39.3634 20.7939 39.3429 20.7939C39.4249 20.7529 39.4762 20.7222 39.4967 20.7017H39.5274L39.5582 20.6709ZM43.5871 14.7044C43.5871 14.7044 43.5973 14.6942 43.6178 14.6737C43.5973 14.6737 43.5871 14.6839 43.5871 14.7044ZM43.5871 14.7659C43.5871 14.7454 43.5871 14.7352 43.5871 14.7352C43.6076 14.7352 43.6178 14.7249 43.6178 14.7044C43.6178 14.7249 43.6076 14.7352 43.5871 14.7352C43.5871 14.7352 43.5871 14.7454 43.5871 14.7659ZM40.1425 16.6728V16.642V16.6728Z" fill="url(#paint0_linear_3732_3020)"/>
<defs>
<linearGradient id="paint0_linear_3732_3020" x1="18.7089" y1="45.2516" x2="46.0126" y2="14.212" gradientUnits="userSpaceOnUse">
<stop stop-color="#ED6F2D"/>
<stop offset="1" stop-color="#FFD600"/>
</linearGradient>
</defs>
</svg>
