<svg width="24" height="24" viewBox="0 0 24 24" fill="none" xmlns="http://www.w3.org/2000/svg">
<path d="M7.99707 9.5C7.99707 9.5 10.0235 8.33994 11.9569 8.33333C13.9196 8.32663 15.9971 9.5 15.9971 9.5C15.6961 8.53384 15.6465 6.97279 15.7225 5.58531C15.8175 3.85097 17.2192 1.07127 17.7419 1.07127C18.2646 1.07127 19.5 2.71058 19.9277 5.58531C20.3865 8.66939 19.6426 10.2894 19.0724 11.0972C19.7297 11.3902 21.1013 12.7365 21.3294 15.5875C21.6145 19.1512 17.7657 23 11.8737 23C6.43308 23 2.29912 19.0086 2.58421 15.4449C2.81229 12.594 4.18392 11.2952 4.84122 11.0022C4.27103 10.1944 3.43209 8.62188 3.8909 5.5378C4.31857 2.66307 5.57772 1 6.1004 1C6.62308 1 8.07233 3.80346 8.16736 5.5378C8.24338 6.92527 8.29801 8.53384 7.99707 9.5Z" stroke="#ED6F2D" stroke-width="1.5" stroke-linejoin="round"/>
<circle cx="8.96094" cy="14.5" r="1.5" fill="#ED6F2D"/>
<circle cx="14.9609" cy="14.5" r="1.5" fill="#ED6F2D"/>
</svg>
