<svg width="113" height="21" viewBox="0 0 113 21" fill="none" xmlns="http://www.w3.org/2000/svg">
<path d="M7.33523 13.3409H9.92614L11.75 15.7188L12.6108 16.7756L15.517 20.5682H12.8239L10.8807 18.0369L10.2159 17.1165L7.33523 13.3409ZM16.0795 10.2727C16.0795 12.1364 15.7386 13.7386 15.0568 15.0795C14.375 16.4148 13.4403 17.4432 12.2528 18.1648C11.071 18.8807 9.72727 19.2386 8.22159 19.2386C6.71023 19.2386 5.3608 18.8807 4.1733 18.1648C2.99148 17.4432 2.05966 16.4119 1.37784 15.071C0.696023 13.7301 0.355114 12.1307 0.355114 10.2727C0.355114 8.40909 0.696023 6.80966 1.37784 5.47443C2.05966 4.13352 2.99148 3.10511 4.1733 2.3892C5.3608 1.66761 6.71023 1.30682 8.22159 1.30682C9.72727 1.30682 11.071 1.66761 12.2528 2.3892C13.4403 3.10511 14.375 4.13352 15.0568 5.47443C15.7386 6.80966 16.0795 8.40909 16.0795 10.2727ZM13.4716 10.2727C13.4716 8.85227 13.2415 7.65625 12.7812 6.68466C12.3267 5.70739 11.7017 4.96875 10.9062 4.46875C10.1165 3.96307 9.22159 3.71023 8.22159 3.71023C7.21591 3.71023 6.31818 3.96307 5.52841 4.46875C4.73864 4.96875 4.11364 5.70739 3.65341 6.68466C3.19886 7.65625 2.97159 8.85227 2.97159 10.2727C2.97159 11.6932 3.19886 12.892 3.65341 13.8693C4.11364 14.8409 4.73864 15.5795 5.52841 16.0852C6.31818 16.5852 7.21591 16.8352 8.22159 16.8352C9.22159 16.8352 10.1165 16.5852 10.9062 16.0852C11.7017 15.5795 12.3267 14.8409 12.7812 13.8693C13.2415 12.892 13.4716 11.6932 13.4716 10.2727ZM19.9702 19H17.1747L23.456 1.54545H26.4986L32.7798 19H29.9844L25.0497 4.71591H24.9134L19.9702 19ZM20.4389 12.1648H29.5071V14.3807H20.4389V12.1648Z" fill="#ED6F2D"/>
<path d="M51.1719 6.13068C51.081 5.32386 50.706 4.69886 50.0469 4.25568C49.3878 3.80682 48.5582 3.58239 47.5582 3.58239C46.8423 3.58239 46.223 3.69602 45.7003 3.92329C45.1776 4.14489 44.7713 4.4517 44.4815 4.84375C44.1974 5.23011 44.0554 5.67045 44.0554 6.16477C44.0554 6.57955 44.152 6.9375 44.3452 7.23864C44.544 7.53977 44.8026 7.79261 45.1207 7.99716C45.4446 8.19602 45.7912 8.36364 46.1605 8.5C46.5298 8.63068 46.8849 8.73864 47.2259 8.82386L48.9304 9.26705C49.4872 9.40341 50.0582 9.58807 50.6435 9.82102C51.2287 10.054 51.7713 10.3608 52.2713 10.7415C52.7713 11.1222 53.1747 11.5938 53.4815 12.1562C53.794 12.7188 53.9503 13.392 53.9503 14.1761C53.9503 15.1648 53.6946 16.0426 53.1832 16.8097C52.6776 17.5767 51.9418 18.1818 50.9759 18.625C50.0156 19.0682 48.8537 19.2898 47.4901 19.2898C46.1832 19.2898 45.0526 19.0824 44.098 18.6676C43.1435 18.2528 42.3963 17.6648 41.8565 16.9034C41.3168 16.1364 41.0185 15.2273 40.9616 14.1761H43.6037C43.6548 14.8068 43.8594 15.3324 44.2173 15.7528C44.581 16.1676 45.044 16.4773 45.6065 16.6818C46.1747 16.8807 46.7969 16.9801 47.473 16.9801C48.2173 16.9801 48.8793 16.8636 49.4588 16.6307C50.044 16.392 50.5043 16.0625 50.8395 15.642C51.1747 15.2159 51.3423 14.7187 51.3423 14.1506C51.3423 13.6335 51.1946 13.2102 50.8991 12.8807C50.6094 12.5511 50.2145 12.2784 49.7145 12.0625C49.2202 11.8466 48.6605 11.6562 48.0355 11.4915L45.973 10.929C44.5753 10.5483 43.4673 9.98864 42.6491 9.25C41.8366 8.51136 41.4304 7.53409 41.4304 6.31818C41.4304 5.3125 41.7031 4.43466 42.2486 3.68466C42.794 2.93466 43.5327 2.35227 44.4645 1.9375C45.3963 1.51705 46.4474 1.30682 47.6179 1.30682C48.7997 1.30682 49.8423 1.5142 50.7457 1.92898C51.6548 2.34375 52.3707 2.91477 52.8935 3.64204C53.4162 4.36364 53.6889 5.19318 53.7116 6.13068H51.1719ZM63.0036 5.90909V7.95455H55.853V5.90909H63.0036ZM57.7706 2.77273H60.3189V15.1562C60.3189 15.6506 60.3928 16.0227 60.5405 16.2727C60.6882 16.517 60.8786 16.6847 61.1115 16.7756C61.3501 16.8608 61.6087 16.9034 61.8871 16.9034C62.0916 16.9034 62.2706 16.8892 62.424 16.8608C62.5774 16.8324 62.6967 16.8097 62.782 16.7926L63.2422 18.8977C63.0945 18.9545 62.8842 19.0114 62.6115 19.0682C62.3388 19.1307 61.9979 19.1648 61.5888 19.1705C60.9183 19.1818 60.2933 19.0625 59.7138 18.8125C59.1342 18.5625 58.6655 18.1761 58.3075 17.6534C57.9496 17.1307 57.7706 16.4744 57.7706 15.6847V2.77273ZM74.1151 13.571V5.90909H76.6719V19H74.1662V16.733H74.0298C73.7287 17.4318 73.2457 18.0142 72.581 18.4801C71.9219 18.9403 71.1009 19.1705 70.1179 19.1705C69.277 19.1705 68.5327 18.9858 67.8849 18.6165C67.2429 18.2415 66.7372 17.6875 66.3679 16.9545C66.0043 16.2216 65.8224 15.3153 65.8224 14.2358V5.90909H68.3707V13.929C68.3707 14.821 68.6179 15.5312 69.1122 16.0597C69.6065 16.5881 70.2486 16.8523 71.0384 16.8523C71.5156 16.8523 71.9901 16.733 72.4616 16.4943C72.9389 16.2557 73.3338 15.8949 73.6463 15.4119C73.9645 14.929 74.1207 14.3153 74.1151 13.571ZM84.9964 19.2557C83.9396 19.2557 82.9964 18.9858 82.1669 18.446C81.343 17.9006 80.6953 17.125 80.2237 16.1193C79.7578 15.108 79.5249 13.8949 79.5249 12.4801C79.5249 11.0653 79.7607 9.85511 80.2322 8.84943C80.7095 7.84375 81.3629 7.07386 82.1925 6.53977C83.022 6.00568 83.9624 5.73864 85.0135 5.73864C85.826 5.73864 86.4794 5.875 86.9737 6.14773C87.4737 6.41477 87.8601 6.72727 88.1328 7.08523C88.4112 7.44318 88.6271 7.75852 88.7805 8.03125H88.9339V1.54545H91.4822V19H88.9936V16.9631H88.7805C88.6271 17.2415 88.4055 17.5597 88.1158 17.9176C87.8317 18.2756 87.4396 18.5881 86.9396 18.8551C86.4396 19.1222 85.7919 19.2557 84.9964 19.2557ZM85.5589 17.0824C86.2919 17.0824 86.9112 16.8892 87.4169 16.5028C87.9283 16.1108 88.3146 15.5682 88.576 14.875C88.843 14.1818 88.9766 13.375 88.9766 12.4545C88.9766 11.5455 88.8459 10.75 88.5845 10.0682C88.3232 9.38636 87.9396 8.85511 87.4339 8.47443C86.9283 8.09375 86.3033 7.90341 85.5589 7.90341C84.7919 7.90341 84.1527 8.10227 83.6413 8.5C83.13 8.89773 82.7436 9.44034 82.4822 10.1278C82.2266 10.8153 82.0987 11.5909 82.0987 12.4545C82.0987 13.3295 82.2294 14.1165 82.4908 14.8153C82.7521 15.5142 83.1385 16.0682 83.6499 16.4773C84.1669 16.8807 84.8033 17.0824 85.5589 17.0824ZM95.1193 19V5.90909H97.6676V19H95.1193ZM96.4062 3.8892C95.9631 3.8892 95.5824 3.74148 95.2642 3.44602C94.9517 3.14489 94.7955 2.78693 94.7955 2.37216C94.7955 1.9517 94.9517 1.59375 95.2642 1.29829C95.5824 0.997159 95.9631 0.846591 96.4062 0.846591C96.8494 0.846591 97.2273 0.997159 97.5398 1.29829C97.858 1.59375 98.017 1.9517 98.017 2.37216C98.017 2.78693 97.858 3.14489 97.5398 3.44602C97.2273 3.74148 96.8494 3.8892 96.4062 3.8892ZM106.61 19.2642C105.383 19.2642 104.312 18.983 103.397 18.4205C102.482 17.858 101.772 17.071 101.266 16.0597C100.761 15.0483 100.508 13.8665 100.508 12.5142C100.508 11.1562 100.761 9.96875 101.266 8.9517C101.772 7.93466 102.482 7.14489 103.397 6.58239C104.312 6.01989 105.383 5.73864 106.61 5.73864C107.837 5.73864 108.908 6.01989 109.823 6.58239C110.738 7.14489 111.448 7.93466 111.954 8.9517C112.46 9.96875 112.712 11.1562 112.712 12.5142C112.712 13.8665 112.46 15.0483 111.954 16.0597C111.448 17.071 110.738 17.858 109.823 18.4205C108.908 18.983 107.837 19.2642 106.61 19.2642ZM106.619 17.125C107.414 17.125 108.073 16.9148 108.596 16.4943C109.119 16.0739 109.505 15.5142 109.755 14.8153C110.011 14.1165 110.138 13.3466 110.138 12.5057C110.138 11.6705 110.011 10.9034 109.755 10.2045C109.505 9.5 109.119 8.93466 108.596 8.50852C108.073 8.08239 107.414 7.86932 106.619 7.86932C105.817 7.86932 105.153 8.08239 104.624 8.50852C104.102 8.93466 103.712 9.5 103.457 10.2045C103.207 10.9034 103.082 11.6705 103.082 12.5057C103.082 13.3466 103.207 14.1165 103.457 14.8153C103.712 15.5142 104.102 16.0739 104.624 16.4943C105.153 16.9148 105.817 17.125 106.619 17.125Z" fill="#222222"/>
</svg>
