<svg width="25" height="24" viewBox="0 0 25 24" fill="none" xmlns="http://www.w3.org/2000/svg">
<path fill-rule="evenodd" clip-rule="evenodd" d="M23.4888 12.5C23.2274 18.3431 18.4076 23 12.5 23C6.59244 23 1.77256 18.3431 1.51116 12.5H7.19263C7.31901 15.4654 9.76309 17.8308 12.7596 17.8308C15.7562 17.8308 18.2002 15.4654 18.3266 12.5H23.4888ZM23.4888 11.5H18.2805C17.9105 8.78148 15.5797 6.68652 12.7596 6.68652C9.93955 6.68652 7.60879 8.78148 7.23871 11.5H1.51116C1.77256 5.65693 6.59244 1 12.5 1C18.4076 1 23.2274 5.65693 23.4888 11.5ZM24.5 12C24.5 18.6274 19.1274 24 12.5 24C5.87258 24 0.5 18.6274 0.5 12C0.5 5.37258 5.87258 0 12.5 0C19.1274 0 24.5 5.37258 24.5 12ZM17.3317 12.2586C17.3317 14.7838 15.2847 16.8308 12.7596 16.8308C10.2345 16.8308 8.1875 14.7838 8.1875 12.2586C8.1875 9.73353 10.2345 7.68652 12.7596 7.68652C15.2847 7.68652 17.3317 9.73353 17.3317 12.2586ZM12.7573 14.6026C14.0515 14.6026 15.1006 13.5534 15.1006 12.2593C15.1006 10.9651 14.0515 9.91602 12.7573 9.91602C11.4632 9.91602 10.4141 10.9651 10.4141 12.2593C10.4141 13.5534 11.4632 14.6026 12.7573 14.6026ZM12.7573 15.6026C14.6038 15.6026 16.1006 14.1057 16.1006 12.2593C16.1006 10.4129 14.6038 8.91602 12.7573 8.91602C10.9109 8.91602 9.41406 10.4129 9.41406 12.2593C9.41406 14.1057 10.9109 15.6026 12.7573 15.6026Z" fill="#ED6F2D"/>
</svg>
