<svg width="26" height="23" viewBox="0 0 26 23" fill="none" xmlns="http://www.w3.org/2000/svg">
<path fill-rule="evenodd" clip-rule="evenodd" d="M5.33398 5.66667C5.33398 3.36548 7.19946 1.5 9.50065 1.5C11.8018 1.5 13.6673 3.36548 13.6673 5.66667C13.6673 7.96785 11.8018 9.83333 9.50065 9.83333C7.19946 9.83333 5.33398 7.96785 5.33398 5.66667ZM9.50065 0.5C6.64718 0.5 4.33398 2.8132 4.33398 5.66667C4.33398 8.52014 6.64718 10.8333 9.50065 10.8333C12.3541 10.8333 14.6673 8.52014 14.6673 5.66667C14.6673 2.8132 12.3541 0.5 9.50065 0.5ZM6.00065 14.5C4.63037 14.5 3.3162 15.0443 2.34727 16.0133C1.37833 16.9822 0.833984 18.2964 0.833984 19.6667V22C0.833984 22.2761 1.05784 22.5 1.33398 22.5C1.61013 22.5 1.83398 22.2761 1.83398 22V19.6667C1.83398 18.5616 2.27297 17.5018 3.05437 16.7204C3.83577 15.939 4.89558 15.5 6.00065 15.5H13.0007C14.1057 15.5 15.1655 15.939 15.9469 16.7204C16.7283 17.5018 17.1673 18.5616 17.1673 19.6667V22C17.1673 22.2761 17.3912 22.5 17.6673 22.5C17.9435 22.5 18.1673 22.2761 18.1673 22V19.6667C18.1673 18.2964 17.623 16.9822 16.654 16.0133C15.6851 15.0443 14.3709 14.5 13.0007 14.5H6.00065ZM20.6819 15.0264C20.7509 14.759 21.0236 14.5982 21.291 14.6672C22.3994 14.9534 23.3814 15.5996 24.0828 16.5044C24.7841 17.4092 25.1652 18.5212 25.166 19.666V19.6664V21.9997C25.166 22.2758 24.9422 22.4997 24.666 22.4997C24.3899 22.4997 24.166 22.2758 24.166 21.9997V19.6667C24.1653 18.7435 23.8581 17.8467 23.2924 17.1171C22.7268 16.3874 21.9349 15.8663 21.041 15.6355C20.7736 15.5665 20.6129 15.2937 20.6819 15.0264ZM17.79 0.666992C17.5225 0.598498 17.2501 0.759835 17.1816 1.02735C17.1131 1.29486 17.2745 1.56725 17.542 1.63574C18.4383 1.86522 19.2327 2.38647 19.8 3.11732C20.3672 3.84816 20.6752 4.74702 20.6752 5.6722C20.6752 6.59738 20.3672 7.49624 19.8 8.22709C19.2327 8.95793 18.4383 9.47918 17.542 9.70866C17.2745 9.77715 17.1131 10.0495 17.1816 10.3171C17.2501 10.5846 17.5225 10.7459 17.79 10.6774C18.9014 10.3929 19.8865 9.7465 20.5899 8.84026C21.2933 7.93401 21.6752 6.81942 21.6752 5.6722C21.6752 4.52498 21.2933 3.41039 20.5899 2.50414C19.8865 1.5979 18.9014 0.951548 17.79 0.666992Z" fill="#222222"/>
</svg>
