<svg width="24" height="24" viewBox="0 0 24 24" fill="none" xmlns="http://www.w3.org/2000/svg">
<path fill-rule="evenodd" clip-rule="evenodd" d="M23 12C23 18.0751 18.0751 23 12 23C5.92487 23 1 18.0751 1 12C1 5.92487 5.92487 1 12 1C18.0751 1 23 5.92487 23 12ZM24 12C24 18.6274 18.6274 24 12 24C5.37258 24 0 18.6274 0 12C0 5.37258 5.37258 0 12 0C18.6274 0 24 5.37258 24 12ZM11.998 4.41406C12.2742 4.41406 12.498 4.63792 12.498 4.91406V6.45703H15.4035C15.6797 6.45703 15.9035 6.68089 15.9035 6.95703C15.9035 7.23317 15.6797 7.45703 15.4035 7.45703H12.498V11.2243H13.7009C14.4657 11.2243 15.1992 11.5281 15.74 12.0689C16.2808 12.6097 16.5846 13.3431 16.5846 14.1079C16.5846 14.8727 16.2808 15.6062 15.74 16.147C15.1992 16.6877 14.4657 16.9916 13.7009 16.9916H12.498V18.5348C12.498 18.811 12.2742 19.0348 11.998 19.0348C11.7219 19.0348 11.498 18.811 11.498 18.5348V16.9916H7.91211C7.63597 16.9916 7.41211 16.7677 7.41211 16.4916C7.41211 16.2154 7.63597 15.9916 7.91211 15.9916H11.498V12.2243H10.2957C9.53095 12.2243 8.79749 11.9205 8.25671 11.3797C7.71592 10.8389 7.41211 10.1054 7.41211 9.34066C7.41211 8.57588 7.71592 7.84241 8.25671 7.30163C8.79749 6.76084 9.53095 6.45703 10.2957 6.45703H11.498V4.91406C11.498 4.63792 11.7219 4.41406 11.998 4.41406ZM10.2957 7.45703H11.498V11.2243H10.2957C9.79617 11.2243 9.31706 11.0258 8.96381 10.6726C8.61056 10.3193 8.41211 9.84023 8.41211 9.34066C8.41211 8.84109 8.61056 8.36198 8.96381 8.00873C9.31706 7.65548 9.79617 7.45703 10.2957 7.45703ZM12.498 15.9916V12.2243H13.7009C14.2005 12.2243 14.6796 12.4227 15.0329 12.776C15.3861 13.1292 15.5846 13.6084 15.5846 14.1079C15.5846 14.6075 15.3861 15.0866 15.0329 15.4399C14.6796 15.7931 14.2005 15.9916 13.7009 15.9916H12.498Z" fill="#222222"/>
</svg>
