<svg width="31" height="30" viewBox="0 0 31 30" fill="none" xmlns="http://www.w3.org/2000/svg">
<path d="M11.5534 15.7435C12.3725 15.7435 13.0365 15.0795 13.0365 14.2604C13.0365 13.4413 12.3725 12.7773 11.5534 12.7773C10.7343 12.7773 10.0703 13.4413 10.0703 14.2604C10.0703 15.0795 10.7343 15.7435 11.5534 15.7435Z" stroke="#607D8B" stroke-linecap="round" stroke-linejoin="round"/>
<path d="M20.4518 15.7435C21.2709 15.7435 21.9349 15.0795 21.9349 14.2604C21.9349 13.4413 21.2709 12.7773 20.4518 12.7773C19.6328 12.7773 18.9688 13.4413 18.9688 14.2604C18.9688 15.0795 19.6328 15.7435 20.4518 15.7435Z" stroke="#607D8B" stroke-linecap="round" stroke-linejoin="round"/>
<path d="M10.0703 26.125V29.0912H21.9351V26.125" stroke="#607D8B" stroke-linecap="round" stroke-linejoin="round"/>
<path d="M16.7409 21.6755L15.9994 20.1924L15.2578 21.6755H16.7409Z" stroke="#607D8B" stroke-linecap="round" stroke-linejoin="round"/>
<path d="M21.93 26.1249C22.4887 26.1246 23.0359 25.9665 23.5086 25.6688C23.9814 25.3711 24.3605 24.946 24.6022 24.4423C24.844 23.9386 24.9386 23.377 24.8752 22.8219C24.8117 22.2668 24.5928 21.741 24.2436 21.3049C25.9432 19.662 27.1134 17.549 27.604 15.2367C28.0946 12.9243 27.8834 10.5182 26.9974 8.32673C26.1114 6.13527 24.591 4.25841 22.6311 2.93682C20.6713 1.61524 18.3614 0.90918 15.9976 0.90918C13.6338 0.90918 11.3239 1.61524 9.36407 2.93682C7.40424 4.25841 5.88383 6.13527 4.99782 8.32673C4.11181 10.5182 3.90058 12.9243 4.39121 15.2367C4.88185 17.549 6.05199 19.662 7.75158 21.3049C7.40241 21.741 7.1835 22.2668 7.12005 22.8219C7.05661 23.377 7.15121 23.9386 7.39297 24.4423C7.63472 24.946 8.0138 25.3711 8.48656 25.6688C8.95932 25.9665 9.50654 26.1246 10.0652 26.1249" stroke="#607D8B" stroke-linecap="round" stroke-linejoin="round"/>
</svg>
