<svg width="79" height="30" viewBox="0 0 79 30" fill="none" xmlns="http://www.w3.org/2000/svg">
<path d="M14.4787 20H12.848L16.5121 9.81818H18.2869L21.951 20H20.3203L17.4418 11.6676H17.3622L14.4787 20ZM14.7521 16.0128H20.0419V17.3054H14.7521V16.0128ZM22.8745 13.6463V12.3636H29.3176V13.6463H26.8269V20H25.3752V13.6463H22.8745ZM32.7567 20.169C32.2728 20.169 31.8353 20.0795 31.4442 19.9006C31.0531 19.7183 30.7433 19.4548 30.5146 19.1101C30.2892 18.7654 30.1765 18.3428 30.1765 17.8423C30.1765 17.4115 30.2594 17.0568 30.4251 16.7784C30.5908 16.5 30.8145 16.2796 31.0962 16.1172C31.378 15.9548 31.6928 15.8321 32.0408 15.7493C32.3888 15.6664 32.7435 15.6035 33.1048 15.5604C33.5621 15.5073 33.9334 15.4643 34.2184 15.4311C34.5034 15.3946 34.7106 15.3366 34.8398 15.2571C34.9691 15.1776 35.0337 15.0483 35.0337 14.8693V14.8345C35.0337 14.4003 34.9111 14.0639 34.6658 13.8253C34.4239 13.5866 34.0626 13.4673 33.582 13.4673C33.0816 13.4673 32.6871 13.5784 32.3988 13.8004C32.1138 14.0192 31.9165 14.2628 31.8072 14.5312L30.4102 14.2131C30.5759 13.7491 30.8178 13.3745 31.136 13.0895C31.4575 12.8011 31.8271 12.5923 32.2447 12.4631C32.6623 12.3305 33.1014 12.2642 33.5621 12.2642C33.8671 12.2642 34.1902 12.3007 34.5316 12.3736C34.8763 12.4432 35.1978 12.5724 35.4961 12.7614C35.7977 12.9503 36.0446 13.2204 36.2369 13.5717C36.4291 13.9197 36.5252 14.3722 36.5252 14.929V20H35.0735V18.956H35.0138C34.9177 19.1482 34.7736 19.3371 34.5813 19.5227C34.3891 19.7083 34.1422 19.8625 33.8406 19.9851C33.5389 20.1077 33.1777 20.169 32.7567 20.169ZM33.0799 18.9759C33.4909 18.9759 33.8422 18.8946 34.1339 18.7322C34.4289 18.5698 34.6526 18.3577 34.805 18.0959C34.9608 17.8307 35.0387 17.5473 35.0387 17.2457V16.2614C34.9857 16.3144 34.8829 16.3641 34.7305 16.4105C34.5813 16.4536 34.4106 16.4917 34.2184 16.5249C34.0262 16.5547 33.8389 16.5829 33.6566 16.6094C33.4743 16.6326 33.3219 16.6525 33.1992 16.669C32.9109 16.7055 32.6474 16.7668 32.4087 16.853C32.1734 16.9392 31.9845 17.0634 31.842 17.2259C31.7028 17.3849 31.6332 17.5971 31.6332 17.8622C31.6332 18.2301 31.7691 18.5085 32.0408 18.6974C32.3126 18.883 32.659 18.9759 33.0799 18.9759ZM38.5051 20V12.3636H39.9917V15.5653H40.7076L43.2282 12.3636H45.0676L42.1096 16.0774L45.1025 20H43.258L40.9561 16.9474H39.9917V20H38.5051ZM48.4794 20.169C47.9955 20.169 47.558 20.0795 47.1669 19.9006C46.7758 19.7183 46.4659 19.4548 46.2372 19.1101C46.0118 18.7654 45.8991 18.3428 45.8991 17.8423C45.8991 17.4115 45.982 17.0568 46.1477 16.7784C46.3134 16.5 46.5372 16.2796 46.8189 16.1172C47.1006 15.9548 47.4155 15.8321 47.7635 15.7493C48.1115 15.6664 48.4661 15.6035 48.8274 15.5604C49.2848 15.5073 49.656 15.4643 49.9411 15.4311C50.2261 15.3946 50.4332 15.3366 50.5625 15.2571C50.6918 15.1776 50.7564 15.0483 50.7564 14.8693V14.8345C50.7564 14.4003 50.6338 14.0639 50.3885 13.8253C50.1465 13.5866 49.7853 13.4673 49.3047 13.4673C48.8042 13.4673 48.4098 13.5784 48.1214 13.8004C47.8364 14.0192 47.6392 14.2628 47.5298 14.5312L46.1328 14.2131C46.2985 13.7491 46.5405 13.3745 46.8587 13.0895C47.1802 12.8011 47.5497 12.5923 47.9673 12.4631C48.3849 12.3305 48.8241 12.2642 49.2848 12.2642C49.5897 12.2642 49.9129 12.3007 50.2543 12.3736C50.599 12.4432 50.9205 12.5724 51.2188 12.7614C51.5204 12.9503 51.7673 13.2204 51.9595 13.5717C52.1518 13.9197 52.2479 14.3722 52.2479 14.929V20H50.7962V18.956H50.7365C50.6404 19.1482 50.4962 19.3371 50.304 19.5227C50.1117 19.7083 49.8648 19.8625 49.5632 19.9851C49.2616 20.1077 48.9003 20.169 48.4794 20.169ZM48.8026 18.9759C49.2135 18.9759 49.5649 18.8946 49.8565 18.7322C50.1515 18.5698 50.3752 18.3577 50.5277 18.0959C50.6835 17.8307 50.7614 17.5473 50.7614 17.2457V16.2614C50.7083 16.3144 50.6056 16.3641 50.4531 16.4105C50.304 16.4536 50.1333 16.4917 49.9411 16.5249C49.7488 16.5547 49.5616 16.5829 49.3793 16.6094C49.197 16.6326 49.0445 16.6525 48.9219 16.669C48.6335 16.7055 48.37 16.7668 48.1314 16.853C47.8961 16.9392 47.7071 17.0634 47.5646 17.2259C47.4254 17.3849 47.3558 17.5971 47.3558 17.8622C47.3558 18.2301 47.4917 18.5085 47.7635 18.6974C48.0353 18.883 48.3816 18.9759 48.8026 18.9759Z" fill="#ED2D2D"/>
<path d="M61.8402 20.1392C61.2171 20.1392 60.657 20.0199 60.1598 19.7812C59.666 19.5393 59.2715 19.2079 58.9766 18.7869C58.6816 18.366 58.5241 17.8854 58.5043 17.3452H59.9957C60.0322 17.7827 60.2261 18.1423 60.5774 18.424C60.9287 18.7057 61.3497 18.8466 61.8402 18.8466C62.2313 18.8466 62.5777 18.7571 62.8793 18.5781C63.1842 18.3958 63.4228 18.1456 63.5952 17.8274C63.7708 17.5092 63.8587 17.1463 63.8587 16.7386C63.8587 16.3243 63.7692 15.9548 63.5902 15.63C63.4112 15.3052 63.1643 15.05 62.8494 14.8643C62.5379 14.6787 62.1799 14.5843 61.7756 14.581C61.4673 14.581 61.1574 14.634 60.8459 14.7401C60.5343 14.8461 60.2824 14.9853 60.0902 15.1577L58.6832 14.9489L59.255 9.81818H64.853V11.1357H60.5327L60.2095 13.9844H60.2692C60.468 13.7921 60.7315 13.6314 61.0597 13.5021C61.3911 13.3729 61.7457 13.3082 62.1236 13.3082C62.7434 13.3082 63.2952 13.4557 63.7791 13.7507C64.2663 14.0457 64.6491 14.4484 64.9276 14.9588C65.2093 15.4659 65.3485 16.0492 65.3452 16.7088C65.3485 17.3684 65.1993 17.9567 64.8977 18.4737C64.5994 18.9908 64.1851 19.3984 63.6548 19.6967C63.1278 19.9917 62.523 20.1392 61.8402 20.1392Z" fill="#ED2D2D"/>
<rect x="1" y="0.5" width="77" height="29" rx="14.5" stroke="#ED2D2D"/>
</svg>
