<svg width="76" height="30" viewBox="0 0 76 30" fill="none" xmlns="http://www.w3.org/2000/svg">
<path d="M13.9787 20H12.348L16.0121 9.81818H17.7869L21.451 20H19.8203L16.9418 11.6676H16.8622L13.9787 20ZM14.2521 16.0128H19.5419V17.3054H14.2521V16.0128ZM22.3745 13.6463V12.3636H28.8176V13.6463H26.3269V20H24.8752V13.6463H22.3745ZM32.2567 20.169C31.7728 20.169 31.3353 20.0795 30.9442 19.9006C30.5531 19.7183 30.2433 19.4548 30.0146 19.1101C29.7892 18.7654 29.6765 18.3428 29.6765 17.8423C29.6765 17.4115 29.7594 17.0568 29.9251 16.7784C30.0908 16.5 30.3145 16.2796 30.5962 16.1172C30.878 15.9548 31.1928 15.8321 31.5408 15.7493C31.8888 15.6664 32.2435 15.6035 32.6048 15.5604C33.0621 15.5073 33.4334 15.4643 33.7184 15.4311C34.0034 15.3946 34.2106 15.3366 34.3398 15.2571C34.4691 15.1776 34.5337 15.0483 34.5337 14.8693V14.8345C34.5337 14.4003 34.4111 14.0639 34.1658 13.8253C33.9239 13.5866 33.5626 13.4673 33.082 13.4673C32.5816 13.4673 32.1871 13.5784 31.8988 13.8004C31.6138 14.0192 31.4165 14.2628 31.3072 14.5312L29.9102 14.2131C30.0759 13.7491 30.3178 13.3745 30.636 13.0895C30.9575 12.8011 31.3271 12.5923 31.7447 12.4631C32.1623 12.3305 32.6014 12.2642 33.0621 12.2642C33.3671 12.2642 33.6902 12.3007 34.0316 12.3736C34.3763 12.4432 34.6978 12.5724 34.9961 12.7614C35.2977 12.9503 35.5446 13.2204 35.7369 13.5717C35.9291 13.9197 36.0252 14.3722 36.0252 14.929V20H34.5735V18.956H34.5138C34.4177 19.1482 34.2736 19.3371 34.0813 19.5227C33.8891 19.7083 33.6422 19.8625 33.3406 19.9851C33.0389 20.1077 32.6777 20.169 32.2567 20.169ZM32.5799 18.9759C32.9909 18.9759 33.3422 18.8946 33.6339 18.7322C33.9289 18.5698 34.1526 18.3577 34.305 18.0959C34.4608 17.8307 34.5387 17.5473 34.5387 17.2457V16.2614C34.4857 16.3144 34.3829 16.3641 34.2305 16.4105C34.0813 16.4536 33.9106 16.4917 33.7184 16.5249C33.5262 16.5547 33.3389 16.5829 33.1566 16.6094C32.9743 16.6326 32.8219 16.6525 32.6992 16.669C32.4109 16.7055 32.1474 16.7668 31.9087 16.853C31.6734 16.9392 31.4845 17.0634 31.342 17.2259C31.2028 17.3849 31.1332 17.5971 31.1332 17.8622C31.1332 18.2301 31.2691 18.5085 31.5408 18.6974C31.8126 18.883 32.159 18.9759 32.5799 18.9759ZM38.0051 20V12.3636H39.4917V15.5653H40.2076L42.7282 12.3636H44.5676L41.6096 16.0774L44.6025 20H42.758L40.4561 16.9474H39.4917V20H38.0051ZM47.9794 20.169C47.4955 20.169 47.058 20.0795 46.6669 19.9006C46.2758 19.7183 45.9659 19.4548 45.7372 19.1101C45.5118 18.7654 45.3991 18.3428 45.3991 17.8423C45.3991 17.4115 45.482 17.0568 45.6477 16.7784C45.8134 16.5 46.0372 16.2796 46.3189 16.1172C46.6006 15.9548 46.9155 15.8321 47.2635 15.7493C47.6115 15.6664 47.9661 15.6035 48.3274 15.5604C48.7848 15.5073 49.156 15.4643 49.4411 15.4311C49.7261 15.3946 49.9332 15.3366 50.0625 15.2571C50.1918 15.1776 50.2564 15.0483 50.2564 14.8693V14.8345C50.2564 14.4003 50.1338 14.0639 49.8885 13.8253C49.6465 13.5866 49.2853 13.4673 48.8047 13.4673C48.3042 13.4673 47.9098 13.5784 47.6214 13.8004C47.3364 14.0192 47.1392 14.2628 47.0298 14.5312L45.6328 14.2131C45.7985 13.7491 46.0405 13.3745 46.3587 13.0895C46.6802 12.8011 47.0497 12.5923 47.4673 12.4631C47.8849 12.3305 48.3241 12.2642 48.7848 12.2642C49.0897 12.2642 49.4129 12.3007 49.7543 12.3736C50.099 12.4432 50.4205 12.5724 50.7188 12.7614C51.0204 12.9503 51.2673 13.2204 51.4595 13.5717C51.6518 13.9197 51.7479 14.3722 51.7479 14.929V20H50.2962V18.956H50.2365C50.1404 19.1482 49.9962 19.3371 49.804 19.5227C49.6117 19.7083 49.3648 19.8625 49.0632 19.9851C48.7616 20.1077 48.4003 20.169 47.9794 20.169ZM48.3026 18.9759C48.7135 18.9759 49.0649 18.8946 49.3565 18.7322C49.6515 18.5698 49.8752 18.3577 50.0277 18.0959C50.1835 17.8307 50.2614 17.5473 50.2614 17.2457V16.2614C50.2083 16.3144 50.1056 16.3641 49.9531 16.4105C49.804 16.4536 49.6333 16.4917 49.4411 16.5249C49.2488 16.5547 49.0616 16.5829 48.8793 16.6094C48.697 16.6326 48.5445 16.6525 48.4219 16.669C48.1335 16.7055 47.87 16.7668 47.6314 16.853C47.3961 16.9392 47.2071 17.0634 47.0646 17.2259C46.9254 17.3849 46.8558 17.5971 46.8558 17.8622C46.8558 18.2301 46.9917 18.5085 47.2635 18.6974C47.5353 18.883 47.8816 18.9759 48.3026 18.9759Z" fill="#45D221"/>
<path d="M61.8423 9.81818V20H60.3011V11.3594H60.2415L57.8054 12.9503V11.4787L60.3459 9.81818H61.8423Z" fill="#45D221"/>
<rect x="0.5" y="0.5" width="75" height="29" rx="14.5" stroke="#45D221"/>
</svg>
