<svg width="40" height="13" viewBox="0 0 40 13" fill="none" xmlns="http://www.w3.org/2000/svg">
<path opacity="0.5" d="M8.60795 3.27273L5.44318 12H3.625L0.454545 3.27273H2.27841L4.48864 9.98864H4.57955L6.78409 3.27273H8.60795ZM14.5966 0.363636V12H12.8352V2.125H12.767L9.98295 3.94318V2.26136L12.8864 0.363636H14.5966ZM18.2145 12.108C17.9039 12.108 17.6368 11.9981 17.4134 11.7784C17.1899 11.5549 17.0781 11.286 17.0781 10.9716C17.0781 10.661 17.1899 10.3958 17.4134 10.1761C17.6368 9.95265 17.9039 9.84091 18.2145 9.84091C18.5251 9.84091 18.7921 9.95265 19.0156 10.1761C19.2391 10.3958 19.3509 10.661 19.3509 10.9716C19.3509 11.1799 19.2978 11.3712 19.1918 11.5455C19.0895 11.7159 18.9531 11.8523 18.7827 11.9545C18.6122 12.0568 18.4228 12.108 18.2145 12.108ZM25.233 12.1932C24.3352 12.1894 23.5682 11.9527 22.9318 11.483C22.2955 11.0133 21.8087 10.3295 21.4716 9.43182C21.1345 8.53409 20.9659 7.45265 20.9659 6.1875C20.9659 4.92614 21.1345 3.84848 21.4716 2.95455C21.8125 2.06061 22.3011 1.37879 22.9375 0.909091C23.5777 0.439394 24.3428 0.204545 25.233 0.204545C26.1231 0.204545 26.8864 0.441287 27.5227 0.914772C28.1591 1.38447 28.6458 2.06629 28.983 2.96023C29.3239 3.85038 29.4943 4.92614 29.4943 6.1875C29.4943 7.45644 29.3258 8.53977 28.9886 9.4375C28.6515 10.3314 28.1648 11.0152 27.5284 11.4886C26.892 11.9583 26.1269 12.1932 25.233 12.1932ZM25.233 10.6761C26.0208 10.6761 26.6364 10.2917 27.0795 9.52273C27.5265 8.75379 27.75 7.64205 27.75 6.1875C27.75 5.22159 27.6477 4.4053 27.4432 3.73864C27.2424 3.06818 26.9527 2.56061 26.5739 2.21591C26.1989 1.86742 25.7519 1.69318 25.233 1.69318C24.4489 1.69318 23.8333 2.07954 23.3864 2.85227C22.9394 3.625 22.714 4.73674 22.7102 6.1875C22.7102 7.1572 22.8106 7.97727 23.0114 8.64773C23.2159 9.31439 23.5057 9.82008 23.8807 10.1648C24.2557 10.5057 24.7064 10.6761 25.233 10.6761ZM35.3509 12.1591C34.6387 12.1591 33.9986 12.0227 33.4304 11.75C32.866 11.4735 32.4152 11.0947 32.0781 10.6136C31.741 10.1326 31.5611 9.58333 31.5384 8.96591H33.2429C33.2846 9.46591 33.5062 9.87689 33.9077 10.1989C34.3092 10.5208 34.7902 10.6818 35.3509 10.6818C35.7978 10.6818 36.1937 10.5795 36.5384 10.375C36.8868 10.1667 37.1596 9.88068 37.3565 9.51705C37.5573 9.15341 37.6577 8.73864 37.6577 8.27273C37.6577 7.79924 37.5554 7.37689 37.3509 7.00568C37.1463 6.63447 36.8641 6.3428 36.5043 6.13068C36.1482 5.91856 35.7391 5.81061 35.277 5.80682C34.9247 5.80682 34.5705 5.86742 34.2145 5.98864C33.8584 6.10985 33.5705 6.26894 33.3509 6.46591L31.7429 6.22727L32.3963 0.363636H38.794V1.86932H33.8565L33.4872 5.125H33.5554C33.7827 4.9053 34.0838 4.72159 34.4588 4.57386C34.8376 4.42614 35.2429 4.35227 35.6747 4.35227C36.383 4.35227 37.0137 4.52083 37.5668 4.85795C38.1236 5.19508 38.5611 5.6553 38.8793 6.23864C39.2012 6.81818 39.3603 7.48485 39.3565 8.23864C39.3603 8.99242 39.1899 9.66477 38.8452 10.2557C38.5043 10.8466 38.0308 11.3125 37.4247 11.6534C36.8224 11.9905 36.1312 12.1591 35.3509 12.1591Z" fill="#222222"/>
</svg>
