<svg width="285" height="34" viewBox="0 0 285 34" fill="none" xmlns="http://www.w3.org/2000/svg">
<path d="M0 34V0.75H33.25V34H28.5V5.5H4.75V34H0ZM47.5 34V29.25H66.5V34H47.5ZM42.75 29.25V15H47.5V29.25H42.75ZM66.5 29.25V15H71.25V29.25H66.5ZM47.5 15V10.25H66.5V15H47.5ZM99.75 34V29.25H104.5V34H99.75ZM95 29.25V24.5H99.75V29.25H95ZM90.25 24.5V19.75H95V24.5H90.25ZM95 19.75V15H99.75V19.75H95ZM80.75 34V10.25H85.5V24.5H90.25V29.25H85.5V34H80.75ZM99.75 15V10.25H104.5V15H99.75ZM118.75 34V29.25H142.5V34H118.75ZM114 29.25V15H118.75V19.75H137.75V15H142.5V24.5H118.75V29.25H114ZM118.75 15V10.25H137.75V15H118.75ZM161.5 24.5V19.75H166.25V24.5H161.5ZM152 34V10.25H156.75V15H161.5V19.75H156.75V34H152ZM171 34V19.75H166.25V15H171V10.25H175.75V34H171ZM190 34V29.25H209V34H190ZM185.25 29.25V15H190V29.25H185.25ZM209 29.25V15H213.75V29.25H209ZM190 15V10.25H209V15H190ZM223.25 34V10.25H228V19.75H242.25V10.25H247V34H242.25V24.5H228V34H223.25ZM270.75 29.25V24.5H275.5V29.25H270.75ZM256.5 34V10.25H261.25V19.75H270.75V24.5H261.25V29.25H270.75V34H256.5ZM280.25 34V10.25H285V34H280.25Z" fill="#222222"/>
</svg>
